<svg version="1.2" xmlns="http://www.w3.org/2000/svg" viewBox="0 0 966 921" width="966" height="921"><style>.a{fill:#fefefe}.b{fill:#d27064}.c{fill:#bdbf6d}.d{fill:#686565}.e{fill:#d89546}.f{fill:#a6a5a6}.g{fill:#dee098}.h{fill:#d9786e}.i{fill:#bcbcbd}.j{fill:#ea998e}.k{fill:#f7b668}.l{fill:#985047}.m{fill:#e8e5e3}.n{fill:#d9ba91}.o{fill:#7b7a7a}.p{fill:#d5da76}.q{fill:#fccb9e}.r{fill:#eb796d}.s{fill:#e9ebeb}.t{fill:#e67c71}.u{fill:#ee7d72}.v{fill:#f5a94f}.w{fill:#8daeb4}.x{fill:#9dbdcb}.y{fill:#8982c0}.z{fill:#6c999f}</style><path class="a" d="m107.7 577.2c1-2.1 0.5-4 0.5-5.8 0.1-50.9 0.1-101.8 0.2-152.7 0.1-6.5-0.3-13 1.3-19.8-0.2-1.3 0.4-1.9 0.8-2.8 1-2.7 2.3-4.8 4.3-6.9 0.7-0.7 1.3-1.3 2.1-1.9 1.9-0.9 3.6-1.7 5.6-2.6 0.9-0.3 1.4-0.6 2.2-0.8 4.3-0.3 8.3-0.6 12.8-1 7.8-2.3 15.3-1.4 23.3-0.6 21.7 0.3 42.9 0.4 64.1 0.5 2 0 4-0.1 6.5-0.2 0.6-0.7 1.1-1.1 2.3-1.2 4.2 0.8 8 1 11.9 1 32 0 64 0.3 96-0.1 13.3-0.2 26.6-1.1 39.9-0.9 2.4 0 4.7-0.2 7.3 1.1 16.7 0.2 32.9 0.2 49.7 0.2 3.7-0.7 7.1-0.3 10.4-0.3 37.6 0 75.3-0.1 113.4 0 2.3 0.3 4.1-0.1 6.3 0.3 55.7 0.1 111 0 166.7-0.1 7.9-1.9 15.5-1.2 23.5-0.2 2.7 0.3 5 0.4 7.8 0.5 2.9 0.3 5.4-0.2 8.3 0.5 1 0.4 1.6 0.6 2.5 1 1.1 0.1 1.6 0.7 2.6 1.1 3.4 1.4 5.8 3.5 7.4 6.9 0.2 1.1 0.7 1.7 1.1 2.6 0.3 0.9 0.5 1.5 0.9 2.4 0.2 0.9 0.5 1.4 0.7 2.3 0.2 0.7 0.3 1.1 0.4 1.7 0.1 0.9 0.4 1.4 0.6 2.3 0.1 0.7 0.2 1.1 0.3 1.7 0.6 2.5 1.4 4.6 1.7 7.2 0.1 1.1 0.3 1.8 0.5 2.8 0.2 1 0.4 1.6 0.6 2.6 0.4 2.2 0.7 4.2 1.1 6.5-5.4 3-9.9 2.4-13.9-1.5-3.2-3.2-6-2.6-7.3 1.6-1.2 4.1-1 8.3-0.4 12.4 0.4 3.3 4.8 4.9 6.7 2.3 4.8-6.6 11-4.8 17.5-3.8 3.3 7.2 3.9 14.7 5.2 22 7.4 39.2 15.1 78.4 22.5 117.6 0.9 4.6 1.6 9.3 7.3 11.4 1.4 5.7-1.3 11-6.7 13.6-3.2 1.5-6.5 2.3-10.1 2.3-8.5 0-16.9 0-25.4 0-3.2 0-5.7-0.7-7.8-3.4-2.5-3.4-6.1-2.6-7.5 1.4-1.4 3.8-1.2 7.9-0.6 11.8 0.3 2 1.6 3.3 3.5 3.9 2 0.5 3.7-0.2 4.7-1.9 1.8-3.1 4.5-3.6 7.7-3.6 8.5 0 16.9-0.2 25.4 0 8.1 0.2 15.1-2.1 20.7-8 0.9-1 1.8-2 3.7-1.9 7.4 7.4 14.4 14.7 21.6 21.8 3.9 3.7 5.7 7.7 5.5 13.2-0.2 4.7-0.9 9.5 0.7 14.5 0.5 12.1 0.3 23.9 0.2 35.6 0 1.5-0.3 3-1.7 4.5-3.4 1.8-6.7 1.1-10.4 1.2-13.3 0.1-26.1 0.1-39.3 0-7.8-0.6-15.2 1-22.8-1.7-0.9-0.3-1.4-0.4-2.2-0.7-2.1-1.1-3.3-2.8-5.8-3.1-0.5-0.1-0.7-0.1-1.2-0.3-1-0.3-1.6-0.6-2.5-0.9-0.6-0.1-0.8-0.2-1.3-0.5-4.6-2.6-9.5-3.5-14.6-4.9-1.1-0.1-1.9-0.2-3.1-0.3-14.9-3.4-29-1-43 3-2.5 0.7-4.9 2.3-7.9 0.7 2.4-8.2 1.7-16.2 1.7-24.1 0-66.1 0-132.3 0-198.4 0-4.8-0.2-9.6-0.9-14.4-1.2-8.6-6.2-13.9-14.8-15-5.6-0.8-11.3-1.5-16.9-1.3-17.3 0.3-34.7-0.6-52 0.9-10.9 0.9-17.5 6.3-19.2 17.3q-1.1 6.4-1 12.9c0 43.6-0.7 87.3 0.2 130.9 0.7 29.6 0.4 59.2 0.8 88.9 0 2.6 0.2 5.3-0.6 8.4-1.2 2.4-3.2 2.2-5.4 2.8-1.1 0.2-1.7 0.3-2.8 0.2-3.9-0.7-7.4-0.5-10.9-0.5-74.5 0-148.9 0-223.4 0.1-4.9 0-9-1.2-13.1-3.7-38.8-23.1-77.7-24.5-116.9 0-2.3 1.7-4.4 2.7-7.1 3.4-1 0.1-1.6 0.1-2.7 0.2-5.4 0.2-10.5 0.1-16 0.1-1.3-0.1-2.2 0-3.5-0.1-5.6 0.2-10.8 0.1-16.4 0.1-1.3-0.1-2.2 0-3.6-0.1-7.2 0.2-13.9 0-21.1 0.1-1 0.1-1.5 0.2-2.5 0.3-0.6 0.2-0.9 0.2-1.6 0.3-4.7 0.1-9-1.5-13.8 0.1-0.6-0.1-0.9-0.1-1.5-0.2-0.9-0.2-1.4-0.3-2.3-0.5-1.4-0.1-2.4-0.1-3.9-0.1-4.2 0-7.9 0-12 0-3.4 0.2-6.4 0-9.8 0.1-1.9-0.2-3.5-0.1-5.4-0.2-1.4-0.1-2.3-0.3-3.5-1.2-1.7-2.8-1.2-5.5-1.2-8.1 0-9.5-0.1-19 0.1-28.8 0.3-1.5 0.8-2.4 1.6-3.6 0.3-0.8 0.3-1.2 0.4-2 0-0.9-0.1-1.6-0.3-2.5-0.1-0.8-0.2-1.2-0.1-2 0.2-1 0.3-1.7 0.4-2.7 0-2.1 0-3.8-0.1-5.9-0.2-2.2-1-3.9-1.5-6.2 0.5-12.7 0.9-25-0.2-37.7-0.3-1.2-0.3-2.1-0.7-3.3-0.7-3.4-0.4-6.7-1.5-10.1z"/><path class="b" d="m224.5 780.3c-10.5-0.3-20.5-0.3-31-0.5-2.4-2.1-2-4.5-2.1-6.8-0.2-8.4-0.2-8.4-8.7-8.4-21.5 0-42.9 0-64.3 0-3.1 0-6.4 0.2-9.5-2.1-0.9-1.2-1.3-2.1-1.3-3.1-0.1-11.3-0.7-22.7 0.6-34.4 1.6-2.1 2.3-0.5 3.6 0.6 2.1 4.2 5.6 3.8 8.9 3.8 23.6 0 47.2 0 70.8 0 2.8 0.1 5.7-0.4 8.6 1.6 1.6 3.5 1.1 6.1-2.6 7.8-23.8-0.6-47.1-0.1-70.5-0.2-1.1 0-2.3 0.1-3.4 0.4-2.5 0.6-3.6 2.4-3.7 4.8-0.1 2.4 0.6 4.6 3.3 5.5 3 1 6.2 1.1 9.4 1.1q25.9 0.1 51.9 0.1c2.5 0 5-0.2 7.9 0.4 4.1 4.7 9.2 3.8 14.1 3.8 13.8 0 13.8 0 19.3-12.5 8.1-18.6 21.5-32 40.8-39.9 1.1-0.4 1.9-0.5 3-0.7 19.9-5.6 39.2-6.1 58.1 1.9 14.9 6.3 25.8 17.4 33.9 31.3 2.9 5 6.5 9.7 7.5 15.6 0.3 2.1 1.7 3.2 3.8 3.2 6 0 11.9 1.3 17.9 1.1 3.1-0.1 5.6-0.6 7.7-3.4 3.4-1.2 6.4-0.9 9.4-0.9 50.3 0 100.6-0.1 150.9 0.1 7.8 0 15.6-1.2 23.4-1.2 3.4-0.1 5.8-1.4 5.9-5.3 0.1-3.9-2.3-5.1-5.7-5.3-2.2-0.1-4.4-0.1-6.5-0.1q-85.7 0-171.4 0c-3 0-6 0.2-9.5-0.5-2.8-1.4-3.9-3.3-3.5-6.4 2.7-3.1 6.1-2.3 9.2-2.3 48.9 0 97.9 0 146.9 0q25.3 0 50.5 0c9.2 0 9.2-0.1 9.3-9.1 0.1-8.8-0.5-17.6 0.5-26.9 2.4-3.6 5.7-1.3 8.8-1.8 2.1 2.2 1.7 4.6 1.7 6.9 0 8.5 0.1 17 0 25.5-0.1 4 1.4 5.7 5.6 5.6 7.8-0.1 15.6 0 23.4 0 2.7 0 4.9-0.4 6.1-3.3 5.8-13.9 15.8-24.6 27.1-34.7 2.2-1.1 4.2-1 6.5-0.5 7.3 5.3 7.3 5.3 0.9 11.2-7.4 7-14.4 14.3-19.3 23.4-1.8 3.3-1 4.1 2.3 4 7-0.1 13.9 0.6 21.1 2.1 0.5 0.9 0.7 1.6 0.5 2.2-4.1 8.8-6.4 18.1-8.5 27.5-0.1 0.8-0.6 1.5-1.7 2.3-3.5 1.1-6.7 0.8-9.8 0.8q-130 0-259.9 0-1.5 0-3 0c-8.9 0-8.9 0-9.1 9.1 0 2.1 0.1 4.3-1.3 6.7-9.1 0.4-17.8 0.5-27.1 0.4-6.4 1.4-12.5 0.5-18.9 0.7-8.8 1.1-17.2 1.3-26 0.8-5.7-1.3-10.8 0.1-15.9 0.2-14.5 0.1-28.9 0.2-43.9 0-8.4 0.1-16.3 0.2-24.7-0.1-6.2-1.7-12.3 0.2-18.3-2.1z"/><path class="a" d="m641.6 115.9c12.3 0 24.3-1.3 36 2.2 44.3 13.3 67.1 53.1 58.4 95.4-0.6 2.8-1.3 5.4-2.9 8.1-10.9 10.9-23.8 18.2-37.9 23.3-2.2 0.8-4.3 1.7-7 0.6-1.1-1-1.2-1.9-1.5-3.3 0-1.3-0.5-2.1-1.2-3.1-6.9-27.4-24.5-44.6-50-55.2-1.1-0.6-1.7-1.3-3-1.6-3-0.6-5.6-1.2-8.4-2.3-2.2-0.8-4-1.7-6.5-1.6-5.7 0.1-11-0.3-16.6 0.4-1.6 0-2.8 0.1-4.3 0.8-1.1 0.3-1.9 0.3-3.1 0.1-4.4-1.5-4.8-5-5-8.5-0.2-5.1 0.2-10.1-0.9-15.6 0-4.5 1.7-8.1 4.5-11 4.6-4.7 9.1-9.5 14.4-14 0.7-0.5 1.1-0.8 1.9-1.2 0.5-0.3 0.7-0.4 1.3-0.7 9.8-6.6 20.1-10.8 31.8-12.8z"/><path class="c" d="m685.8 279.9c-2.3 13.1-8.8 24.1-17.8 33.5-22.3 23.4-49.4 32.2-81.3 24.6-4.2-1-8.2-2.7-12.1-4.6-2.4-1.2-3.5-0.9-4.4 1.6-2.2 6.2-6.7 10.2-12.9 12.9-0.9 0.7-1.4 1.2-2.4 1.8-2 0.6-3.8 0.6-5.9 0.4-1-0.1-1.7-0.4-2.7-0.8-1.2-0.6-2.1-0.7-3.4-0.8-10.8-4.2-15.2-10.5-15.2-21.6 0-2.3-0.1-4.6 0-7.3 1.2-3.4 0.8-5.4-2.2-7.4-6.6-4.3-9.6-10.9-9.8-18.7 0-2.1 0.1-4.3-0.4-6.8-0.3-1.3-0.4-2.2-0.3-3.5 0.2-1.1 0.5-1.9 0.2-3-0.8-1.7-1.9-2.6-3.4-3.6-3-2.4-5.3-5-7.2-8.2-0.5-1-0.7-1.7-0.9-2.7-0.2-1.3-0.9-2-1.5-3.2-0.7-3-0.7-5.5-0.2-8.5 1.7-3.2 3-6.2 5-9.2 0.7-0.9 1.3-1.4 2.3-1.9 5.5-4.2 11.7-5.1 18.3-5.9 0.7-0.7 1.1-1.2 1.8-2 1.3-1.3 2.2-2.5 2.5-4.5 0.2-0.8 0.5-1.2 1-1.9 2.2-1.4 2.9-3.6 4.2-5.3 0.9-1 1.8-2 3.4-1.7 1.7 0.4 2.3 1.7 2.6 3.3 0.3 2 0.2 4 0.2 5.9 0.7 29.1 14.1 50.6 38.5 65.7 19.1 11.9 39.6 14.3 60.9 8.8 11.9-3.1 22.7-8.6 32.2-17.2 2.3-1.7 3-4.2 5.4-5.7 2.2-0.5 3.5-1.9 5.5-2.5z"/><path class="d" d="m806.8 755.6c-0.3 17.7-2 34.9-14 48.6-10.1 11.6-22.6 20.1-38.8 20.7-7.6 0.3-15.4 0.7-22.8-1.8-14.9-5.1-25.3-15.6-33.3-28.6-0.9-1.5-1.8-2.9-2.8-4.6-3.6-4.5-4.1-9.6-4.5-14.7-0.2-3.2 0-6.5-0.7-10.2 1.4-19 10-34 24.7-44.8 20.4-15.1 46.9-14.9 67.6 0 12.4 8.8 19.5 21.2 24.6 35.4z"/><path class="e" d="m515.6 285.8c2.4 2.7 1.1 5.6 1.3 8.3 0.6 7.7 3.6 14.4 10.5 17.8 4.2 2.1 3.4 3.8 1.5 6.8-2.3 2.4-5.1 2.1-7.7 1.8-16.3-1.8-32.6-0.5-48.9-0.9-4.3-0.1-8.6 0-13.4-0.1-3.1-0.1-5.7 0.4-8.5-1.1-41.5-1.3-82.7-1-123.8-1.1-2.8 0-5.7-0.1-8.5-0.2-0.9 0-2.2 0.4-2.7-0.7-0.5-1.2 0.6-1.8 1.3-2.4 1.2-1 2.3-1.9 3.8-3 3.7-1.7 5.8-4.9 9.2-7 0.1-0.3 0.2-0.2 0.1-0.2 0.3 0 0.6-0.2 1-0.8 0.1-0.2 0.1-0.1 0-0.1 5.5-4.6 10.7-9.6 16.9-13.9 0.1-0.4 0-0.2 0-0.3 2.6-1.1 4-4.4 7.7-4.4 13.2 1.2 26 0.2 38.8 0.3 14.2 0.2 28.3 0.5 42.4 0.3 9.5-0.2 19 0.5 28.5-0.2 9.3-0.7 18.6 0.1 27.9 0.2 5.3 0.1 10.6-0.7 16-0.4 2.1 0.2 4.3-0.2 6.6 1.3z"/><path class="f" d="m690.6 763.7c1.9 8.5 0.8 17.2 4.3 25.5-17.4 0.4-34.9 0.2-52.4 0.5-5 0.1-9.2-0.7-11.6-5.4-1.6-3.1-4-3.3-7-3.3-65 0-130 0-195 0-9.7 0-19.3 0-29.5-0.1-0.4-4.3-0.2-8.5-0.5-12.6-0.3-4.1 1-5.5 5.2-5.4 25.7 0.1 51.4 0 77 0 67 0 134 0.1 201.5 0 2.9-0.5 5.4-0.6 8 0.8z"/><path class="b" d="m510.3 243.6c-0.9 0.5-1.4 0.7-2.1 1.2-1.2 1.1-2.1 2-3.9 2-5.8-1.8-9.7-5.6-13.1-10.6-3.7-5.6-3-11.1-1.3-16.6 1.2-3.7 0.9-5.8-2.8-8.2-8.6-5.4-11.4-13.8-10.4-24 0-2.9 1-5.2 1.6-8-0.2-2.4-2.2-2.6-3.5-3.4-9.5-5.8-13.3-16.6-9.3-26.1 4.2-10.1 15-15.4 25.7-12.6 1.6 0.4 3.1 1 5.2 0.5 3.4-1.4 6.3-3.2 9.8-4.2 2.2 1.2 2 3.1 2 4.9 0.2 15.2 7 27.9 15.5 39.7 6.7 9.3 15.2 16.7 25.9 22.1 1.5 2.5 0 4.1-1.3 5.4-3.3 3.3-5.5 7.3-8.3 11.3-2.4 4-4 8-6.7 11.8-0.3 0.6-0.4 1.1-0.6 1.9-0.8 1.4-1.4 2.7-2.4 4-0.4 0.9-0.6 1.4-1.1 2.2-2.3 1.7-4.7 0.9-6.9 1.1-4.6 0.4-8.7 1.6-12 5.6z"/><path class="g" d="m539.2 217.4c2.1-6.5 7.1-10.6 10.9-16 5.2-6.7 12.2-10.6 18.8-15 2.4-1.6 5.1-3 8.2-4.4 5.5-1.5 10.4-4.4 16.5-3 1.1-0.1 1.9-0.1 3-0.2 0.8-0.3 1.3-0.6 2.1-0.8 6.2-1.5 12.2-0.8 18.6-0.8 2.2 0.9 4.2 1.3 6.4 1.8 3 0.7 5.7 1.4 8.8 2.1 0.9 0.4 1.5 0.9 2.3 1.5 26.6 10.1 44.6 27.6 51.4 55.9 0.4 1 0.8 1.6 1.4 2.4 0.2 1.3 0.3 2.3 0.4 3.7 2.7 8.7 3.5 17.1 1.3 26-0.8 1.9-1.3 3.4-2.1 5.2-2.1 0.4-1.8-0.9-1.8-2.1-0.3 3.4-1 6.6-4.1 9.1-2.7 1-2.3 4.3-4.9 5.3-2.7-1-2.6-3.1-2.7-5.1-1.4-19-8.5-35.5-21.7-49.2-12.4-12.9-27.3-21.1-45.8-22.7-11.2-0.9-22.2-0.6-33.2 1.6-8.2 1.6-15.6 5.7-22.6 10.2-5.4 3.5-5.3 3.7-8.7-2-0.7-1.1-1.7-2-2.5-3.5z"/><path class="h" d="m841 600.5c-1.5 0.4-2 1.5-2.8 2.4-5.3 5.8-11.7 9.1-19.7 9-9.9-0.1-19.7 0-29.5-0.2-2.4 0-4.3 0.3-4.6 3.2-0.4 2.6-2.4 2.9-4.5 2.8-2.5-0.2-5.3-0.2-6-3.3-1.3-5.3-1.4-10.6 0.4-15.8 0.8-2.2 2.6-3.4 5.1-3.3 2.2 0 4.4 0.6 5 3.1 0.7 2.6 2.5 2.8 4.6 2.8 9.5-0.1 19 0.1 28.4-0.1 9.5-0.3 14.2-4.7 15.5-14.1-0.7-1.8-0.4-3.3-0.4-4.8 0-22.1 0-44.3 0-66.4 0-6-0.1-6-5.9-5.6-4.3 0.3-5.9-0.9-6-5.3q-0.4-16.3 0-32.5c0.1-4.8 1.4-5.7 6.4-4.6 3.5 0.8 4.5-0.5 4.5-3.7-0.1-4 0-8 0-12-0.1-10.1-6-15.5-16.3-14.9-5.3 0.3-10.6 0.9-16.2-0.6-3.2-0.4-6-0.4-8.8-0.5-3.5-0.2-6.8-0.9-8.1 4.1-0.8 3-4.2 1.7-6.6 1.6-2.2-0.1-3.1-1.7-3.2-3.7 0-5-0.2-10 0.6-14.9 0.3-2.2 1.6-3.2 3.5-3.7 1.8-0.4 4.4-0.9 5 1 2 6.1 6.8 4.4 11 4.6 0.7 0 1.4 0 2.5-0.1 0.5-0.1 0.5-0.3 0.6-0.3 0.3 0 0.5-0.1 0.9 0.1 7.4 0.3 14.6 1 21.7 0.3 13.9-1.3 25.8 13.9 25.6 24.7-0.2 15.5 0.1 31 0.1 46.5 0.1 29.8 0 59.6 0.1 89.4 0 5-0.3 10-2.9 14.8z"/><path class="i" d="m232.4 362.4c-0.9-9.4 2-17 8.2-23.5 5.3-5.6 11.1-8.5 19.3-8.4 35 0.5 70 0.3 105 0.4 14 0 23.4 9.3 23.6 23.2 0.1 4.4 0.1 8.7 0 13.4-3 2.7-5 1-6.9-1-1.6-1.6-3-3.4-4.7-4.9-2.3-2.1-4.2-2.2-6.6 0.1-0.9 0.2-1.4 0.2-2.3 0.1-1.7-0.4-3-0.4-4.8-0.4-13.5-0.3-26.6 0.9-40.1 0.8-7.4-3.9-14.5-3.6-22.2-1-15.8 0.1-31.1 1-46.9 1.1-7.5-2-7.8-2-11.2 3.1-1.4 2.1-2.6 4.6-5.6 4.3-3.2-0.3-3-3.6-4.4-5.9-0.3-0.6-0.4-0.8-0.4-1.4z"/><path class="j" d="m641.8 115.6c-4.4 3.1-9.8 3.3-14.7 5.3-5.8 2.4-11.3 5.3-16.8 8.9-10.8-10.3-24.1-15.3-38.2-17.2-20.7-2.8-40.3 1.1-57.3 14.2-2 1.6-4.2 2.9-7.2 3-2.5-0.7-2.4-2.3-1.9-4 0.4-1.8 0.5-3.5-0.3-5.6 0-0.5 0.1-0.7 0.3-1.1 0.6-0.4 0.8-0.6 1-1.3 11.7-19.4 28.7-31.5 50.6-35.9 33.6-6.7 60.2 6.3 82.4 30.5 0.8 0.8 1.3 1.9 2.1 3.2z"/><path class="d" d="m241.4 781.3c8.4-0.3 16.5-0.3 25-0.3 1.3 0.7 2.1 1.3 2.5 2.2 10.6 19.1 42.5 22.1 55.9 0.2 0.5-0.7 1-1.4 2-2.1 8.6-0.6 17 0.1 25.8-1.1 2.5 3.6 0.5 6.5-1.3 9.8-3.5 8.6-9.4 15-15.8 20.6-17.7 15.6-38.4 18.6-60.2 11.3-12.8-4.4-21.8-14.2-28.7-25.9-1.1-1.8-2.3-3.6-3.6-5.8-2.2-2.8-2.6-5.6-1.6-8.9z"/><path class="f" d="m300.5 360.7c6-3.7 16.8-3.7 21.3 0 1.7 7.8 1.7 7.8 10 7.8q14.9 0 29.8 0c7 0 7 0 8.1-7.1 2.4-0.6 2-4.6 3.6-3.8 2.8 1.3 5.3 3.5 7.3 5.9 1.9 2.3 3.4 5 7.4 4.4 0.5 4.7 0.7 9.3 1.1 14.4-3.3 0.5-6.8 0.6-10.3 0.7-45.2 1-90.5 0.7-135.7 0.7-3.2 0-6.4-0.1-9.8-0.9-2.1-6.5-1.3-12.8-0.5-19.5 2.1-0.1 2.2 1.2 2.2 2.6 0 1.4 0.5 2.6 2.1 2.9 1.5 0.3 2.5-0.7 3.2-1.8 0.9-1.2 1.4-2.7 2.2-3.8 2.3-3.1 4.9-5.5 9.3-2.5 0.5 0.9 0.8 1.5 0.7 2.2-0.7 4.7 2.1 6.1 6.1 6.4 8 0.5 16 0.5 23.9 0 4.1-0.3 8.3-1 12.4-0.7 3.8 0.2 5.7-1.1 4.9-5.2-0.2-0.8 0.1-1.6 0.7-2.7z"/><path class="a" d="m877.6 701c11 0.8 15.6 5.5 15.7 16.1 0.1 9.1 0.2 18.2-0.1 27.4-0.1 6.7-4.3 10.7-11 10.8-11.4 0.1-22.9 0-34.8-0.2-0.6-0.4-0.8-0.7-1.2-1.3-1.1-13.6-0.9-26.7-0.4-39.9 0.3-6.7 4.6-10.8 10.9-12.8 2.5-0.8 5.1-1.4 8.3-1.5 4.3 0.3 8.4-0.8 12.6 1.4z"/><path class="h" d="m107.4 576.7c4.2 2.4 1.7 6.2 2.4 9.6-0.1 0.7-0.3 1-0.8 1.6-5.4 3.6-9.4 8-13.4 12.4-4.4 4.8-5.1 10.7-5.1 16.8 0 42.6 0 85.1 0.1 127.7 0 6.2-1.1 12.2-3.5 18.4-3.2 1.7-6.1 1.7-9.3-0.2-0.2-23.6-0.2-46.9-0.1-70.2 0-24.6 0.1-49.2-0.1-73.8-0.1-19.9 9.2-33.4 27.2-41.8 0.5-0.3 0.6-0.4 1-0.5 0.7 0 1-0.1 1.6 0z"/><path class="f" d="m77.1 762.6c3.4 0.6 6.5 0.5 10 0 7.3-2 14.1-0.8 21.3-0.9 3 1.1 5.6 1.3 8.3 1.3 23.1 0 46.2 0 69.2 0 7.1 0 7.1 0 7.1 7.3 0 2.8 0 5.6 0 8.9-4.1 0.5-8.3 0.7-12.4 0.7q-52.5 0-105 0c-1.3 0-2.7 0-4 0-6.6-0.3-9.3-2.3-9.2-7.3 0-5.2 4-9.4 9.3-9.8 1.6-0.2 3.3-0.2 5.4-0.2z"/><path class="k" d="m477.7 185.6c0 7.7-0.1 15 5.5 20.9 2 2.1 4 4.4 6.7 5.1 2.9 0.8 3 1.8 2.4 4.5-1 3.8-2.7 7.4-2.4 11.6 0.2 2.7 0.5 5.2 2 7.9-6.9 1.7-13.7 4.4-20.8-0.2-2.9-1.9-6.9 0-10.2 0.8-4.5 1.2-8.5 1.1-12.1-2.3-2.4-2.2-5.4-1.9-8.4-1.3-6.1 1.2-11.7-0.9-17.4-3.4-0.9-2.9 1.3-3.8 2.8-5 12.5-10.8 25.3-21.4 37.9-32.7 0.3-0.2 0.5-0.6 0.7-0.6 3.6-1.5 5.9-4.4 9.1-6.3 1.5-0.9 3.1-2.3 4.2 1z"/><path class="l" d="m691 763.6c-2.5 0.1-5 0.8-7.6-0.4 0.6-11 3.8-21 8.5-30.9 1.4-5.5 4.8-9.5 8.5-12.8 14.1-12.6 30.3-20.4 49.7-19.8 16.4 0.6 30.8 6.5 42.8 17.9 3.9 3.7 8.1 7.4 11.1 12.6 2.5 4.9 5.3 9.3 7 14.1 1.1 3.4 2.1 6.7 0.3 10.5-1.2 1.4-2.5 0.9-4.1 1.1-1.6-0.7-2.6-1.7-3.1-3.3-5.7-16.9-16.2-29.7-32.4-37.2-24.4-11.3-54.4-2.9-68.6 18.3-4.2 6.2-7.5 12.8-10.4 19.7-1.3 3.2 0.1 6.7-1.7 10.2z"/><path class="f" d="m450 318.6c2.6-0.5 5.2-0.5 8.3-0.4 1.6 2.5 1.3 5 1.3 7.5 0 13.6 0 27.1 0 40.7 0 2.3 0 4.6 0.7 7.4 0.4 2.7 2 2.7 3.8 2.7 23 0 46 0.2 69.1-0.2 3.9 0 8.2 0.1 12.2-1.7 1.7-5.3 0.8-10.4 1.1-15.5 0.1-3-0.4-6.2 0.9-9.6 2.4-0.4 4.5-0.4 7-0.5 2.2 1.6 1.5 3.8 1.6 5.7 0.2 5.8-0.3 11.6 0.4 17.8 1.4 3.1 4.1 1.6 5.9 2.5 1.9 1 3.9 1.8 5.1 4.2 0.5 2.6-1.9 2.3-2.9 3.7-5 1.7-9.8 0.9-14.6 1-35.9 0.1-71.7 0-107.6 0-0.9 0-1.9-0.4-3.1-0.9 1.8-4.3 3.5-8.5 9.1-8.7 3-0.1 1.8-2.8 1.8-4.3 0.1-17 0-34-0.1-51.4z"/><path class="b" d="m811.5 755.2c0.6-9.1-4.5-16.1-8.3-23.9 5.7-3 12-1.2 18-2.3 2.4-0.4 5-0.3 7.4 0.2 3.7 0.7 5.9-0.6 6-4.6 0.1-2.1 1-4.3 0.8-6.4-0.3-6.1 2.5-11.1 5-16.4 3.1-6.6 7.7-10.1 15.2-10.8 3.3-1.1 6.4-0.5 9.9-0.4 4 3.1 3.5 6.4 0.9 10.2-2.7 0.5-5 0.6-7.3 1.1-8.5 2-12 6-12.1 14.6-0.2 12.2 0 24.3 0 36.9-3.3 2.8-7 1-10.8 1.8-8.3 0-16.3 0-24.7 0z"/><path class="m" d="m689.4 270.9c0.1-8.3-1.1-16.6-1.4-25.5 9.5-1.2 17.3-5.9 25.3-10.3 5.8-3.2 11.6-6.5 15.9-11.8 0.8-0.9 1.9-1.4 3.5-1.3-2.7 10.7-9.3 19.2-16.2 27.5-7.5 8.9-16.9 15.4-27.1 21.4z"/><path class="f" d="m866.5 701.1c0.8-3.3 1-6.5-0.5-10 1.6-1.9 1.3-4 1.3-6 0-9.3 0-18.6 0-27.9 0-2-0.3-4 1-6.2 6 5.1 9.7 11.2 9 20-0.6 9.7 0.2 19.5 0.5 29.7-3.5 0.5-7.2 0.4-11.3 0.4z"/><path class="n" d="m463.6 191.4c-0.3 2.9-2.8 4.6-5 6.3-11.6 9.1-22.3 19.2-33.6 28.6-0.5 0.5-1.1 0.8-1.8 1.4-0.6 2.4-2 3.8-3.6 5-16.6 12-31.3 26.1-47.2 38.9-5.5 4.5-10.8 9.3-17.1 13.3-3 0.6-4.1 3.7-7.3 3.8 4.6-5.6 10.9-9.8 16.6-14.6 32.9-27.6 65.8-55.1 99-82.7z"/><path class="m" d="m146.7 367.4c7.1-1.8 8.8-0.8 11 6 0.5 1.5 1 3.1 1.7 5 0 1.2-0.3 2.1-1.2 2.3-6.2 1.6-12.4 2.4-18.7-0.5 0.9-2.6 1.5-4.9 1.5-7.7 0.3-0.7 0.5-1 0.5-1.5 0.3-1.1 0.7-2 2.1-2.4 1.6 0.9 0.8 2.5 1.5 3.9 1-1.7 0.4-3.5 1.6-5.1z"/><path class="f" d="m241.3 780.8c0.7 2.9 1.1 5.7 1.5 8.8-3.4 0.3-6.8 1-9.9 0.3-4.7-1-6.4-5.5-8.8-9.5 5.6-0.1 11.3-1 17.2 0.4z"/><path class="f" d="m351.5 790.2c0.2-3 0.9-6.1 1.5-9.6 6-0.4 12.1-0.3 18.4-0.1-4.8 6.4-11 10.4-19.9 9.7z"/><path class="m" d="m755.3 374.9c1.2 1.5 2.7 2.5 2.7 4.7-6.2 3.3-12.6 2.9-19.3 0.7 0-2 0.3-3.6 0.9-5.4 5.5 0.7 4.6-3.7 6-6.5 1.5-0.8 2.7-0.7 4.1-0.3 1.9 2.3 1.7 6 5.6 6.8z"/><path class="h" d="m505.1 120c2.6 0.6 3.2 2.1 2.3 4.4-0.5 1.3-1.5 2.6-0.7 4.4 1.5 1.9 0.7 3.3-0.4 4.9-2.8 2.7-5.9 3.7-9.3 4.2 1.2-6.6 4.2-12.3 8.1-17.9z"/><path class="o" d="m738.2 380c6.4 1.2 12.7 0.7 19.3 0 0.8 0.7 1.2 1.4 1.7 2.4-7.5 0.3-15 0.3-23 0.3 0.3-0.9 1-1.7 2-2.7z"/><path class="d" d="m139.1 379.9c6.9 2 13.4 1.3 20.2-0.8 1.6 0.3 1.1 1.8 1.9 3.1-7.4 0.3-14.9 0.4-22.9 0.5-0.1-0.9 0.2-1.8 0.8-2.8z"/><path class="n" d="m478 185.6c-1.2-0.7-1.9-1.9-3.9-0.2-2.7 2.1-4.9 5.1-9.1 5.5 3.4-4.5 8.6-7.4 13.1-11.6 3.7 2-1.2 3.8-0.1 6.3z"/><path class="i" d="m556.7 372.5c-2.5-0.2-1.7-2.2-1.7-3.7-0.1-6.3-0.1-12.5-0.1-19.3 0.5-0.8 1-1.1 1.8-1.4 0.2 7.9 0.1 15.9 0 24.4z"/><path class="n" d="m347.4 288.7c-3.9 6-10.1 9.8-16.3 14.1 4.3-5.5 10.4-9.5 16.3-14.1z"/><path class="h" d="m745.6 368.3c0.2 0.8-0.3 1.6-0.2 2.3 0.7 5.6 0.8 5.6-5.1 4.1-0.1-3.4 1-6 5.3-6.4z"/><path class="d" d="m233 362.8c0.1 6.4 0.1 12.6 0 19.3-0.3 0.6-0.5 0.7-1 0.5-0.8-6.7-0.8-13.4 0.1-20.3 0.6-0.3 0.8-0.1 0.9 0.5z"/><path class="b" d="m755.5 374.8c-4.9 1.1-6.1-1.5-5.6-6.1 5.2-1.3 5.4 2.1 5.6 6.1z"/><path class="p" d="m681.4 283c0.2-3 2.1-5.4 3.1-8.3 1-3 1.2 0.7 2.2 1.1 0.1 1.3-0.1 2.5-0.4 3.9-1.7 1.3-2.2 3.7-4.9 3.3z"/><path class="b" d="m146.6 367.1c0.3 1.5 0.3 3 0.3 4.5-0.1 1.4 0.8 3.7-1.9 3.4-2.3-0.2-2-2.1-1.7-3.8 0.2-0.6 0.4-1.3 0.6-2.3 0.9-0.9 1.7-1.4 2.7-1.8z"/><path class="n" d="m329.5 303.7c-1.5 3.4-3.9 6.3-8.3 7.3q3.6-3.7 8.3-7.3z"/><path class="l" d="m836.3 755.5c2.6-2.9 6.4-0.8 10.2-1.6 0.5 0.1 0.6 0.3 0.6 0.7-3.4 2.2-7 1-10.8 0.9z"/><path class="o" d="m564.5 383.2c-1.3-3 1.1-2.6 2.8-3.4 0.7 0.6 1.1 1.5 1.7 2.7-1.3 1.2-2.7 0.9-4.5 0.7z"/><path class="o" d="m775.1 383.3c-2.4 0.2-4.9 0.1-7.7-0.2 2.2-0.8 4.8-0.6 7.7 0.2z"/><path class="o" d="m793.3 412.7c-1.4-1.7-1.4-4.1-1.9-6.6 1.7 1.6 1.8 4 1.9 6.6z"/><path class="o" d="m794.3 418.1q-0.5-0.7-0.7-2.2 0.5 0.7 0.7 2.2z"/><path class="d" d="m124.8 383.7c-0.3 0.5-0.9 0.7-1.7 1-0.1-1.2 0.7-1.2 1.7-1z"/><path class="o" d="m780.1 385.3q-0.9 0.2-2.3-0.5c0.8-0.7 1.5-0.2 2.3 0.5z"/><path class="d" d="m116.8 387.1q-0.3 0.9-1.5 1.8c-0.3-1 0.4-1.4 1.5-1.8z"/><path class="o" d="m788.7 395c-1-0.1-1.1-1-1.2-2q0.7 0.6 1.2 2z"/><path class="o" d="m791.3 403.8c-0.4-0.4-0.7-0.9-0.8-1.8 1.1 0.1 1 0.9 0.8 1.8z"/><path class="o" d="m790.4 399.8c-0.5-0.4-0.8-0.9-1-1.8 1.1 0 1.1 0.9 1 1.8z"/><path class="d" d="m110.3 395.9c0.1 0.6 0 1.4-0.3 2.3-0.6-0.6-0.5-1.4 0.3-2.3z"/><path class="o" d="m796.6 424.9c-0.2 0.2-0.3 0.1-0.7-0.1 0-0.3 0.3-0.2 0.7 0.1z"/><path class="h" d="m506.4 117.7q0.2 0.3-0.2 1-0.3-0.2 0.2-1z"/><path class="d" d="m141.1 371q0.8 0.2 0.2 0.9-0.4-0.2-0.2-0.9z"/><path class="d" d="m106 576.7c-0.1 0.2-0.2 0.3-0.6 0.4-0.1-0.4 0.1-0.5 0.6-0.4z"/><path class="n" d="m330.6 302.8c0.1 0.3-0.1 0.6-0.6 1-0.1-0.3 0.1-0.7 0.6-1z"/><path class="m" d="m498.6 628.7c0.5 10.3 0.5 10.3 10.3 10.3q39 0 78 0c4 0 7.4 5.3 5.5 8.7-1 1.8-2.9 1.3-4.5 1.3-10.4 0-20.7 0-31 0-41.2 0-82.3-0.7-123.5 0.2-71.1 1.5-142.2 0.5-213.3 0.6-13.8 0-27.6-0.8-41.4-0.8-16.6 0-33.2 0-49.8 0-5.3 0-7.7-3.5-5.8-8.4 1-2.4 3.1-1.6 4.8-1.6 21.6 0 43.3-0.2 64.9 0.1 4.9 0.1 6-2 5.1-5.9-1.5-6.6-0.7-13.2-0.8-19.9-0.2-6.3-0.1-6.3-6.7-6.3q-30.2 0-60.5 0c-4.9 0-7.7-3.4-6.8-8.3 0.5-3.1 2.9-2.7 5-2.7 13.3 0 26.7 0.7 40-0.3 8.5-0.6 17.1 0.4 25.6-0.6 2.7-0.3 3.4-1.3 3.3-3.7-0.1-8 0-16 0-24 0-1.8-0.2-3.4-2.6-3.4-3.8 0-7.7-0.9-11.3-0.6-13.2 1.2-26.3 0.5-39.4 0.4-5.6-0.1-11.3-1-16.9-0.7-3.8 0.1-3.8-2-3.9-4.8-0.1-3.1 0.8-4.4 4.2-4.4 19.2 0.2 38.3 0.1 57.5 0.1 9.7 0 9.3 0.1 6.8-8.9-1.1-4-0.4-8.6-0.4-12.9 0-5.1 0-10.3 0-15.1 1.9-1.4 3.5 2.7 4.9-0.7 0.7-0.5 1.2-0.3 1.7 0.6-1 11.4 2.1 22.5 0.3 33.7-0.3 2.1 0.6 3.4 2.5 4.3 2.1 1 4.1 2.2 6.6 3.5 0.5 0.5 0.6 0.8 0.9 1.4 0.7 4.6 1.1 8.7 1.6 12.9 0.3 3 1.7 4.5 4.7 4.6 0.7 0-0.1 0.1 0.5 0 13.8-1.2 27.6 1.2 41.4-0.6 4.8-0.6 9.7-0.8 14.4-0.2 13 1.7 26 0.5 38.9 0.5 14.2 0 28.6 1 42.8-0.6 2.6-0.3 5.3-0.2 8.2 1.2 2.1 2.4 4.4 3.4 7 4.2 4.3 1.4 5.4 3.7 4.1 8.4-13.8-0.6-27.2 1.9-40.6 0.9-3.8-0.3-5.3 1.2-5.3 4.7q-0.1 17.2 0 34.4c0 2.6 1.1 4 3.8 4.1 11.8 0.2 23.6 2.2 35.4 0.2 5.4-0.9 5.6-0.8 5.6-6.5 0.1-10.5 0-20.9 0.1-31.4 0-2-0.1-4 1.1-6.2 3.6-1.7 3.4 1.1 3.7 2.8 0.5 3 0.2 6 0.2 9 0 9.1 0.1 18.3 0 27.5-0.1 3-0.2 6-3.5 8.1 21.6-0.8 42.9-0.2 64.2-0.6 13.3-0.2 26.7 0 40 0.3 4.2 0 7.6-1.1 10.9-4 3.1-2.7 6-6.5 11.5-4.9z"/><path class="q" d="m188.5 497c-1.8-1.2-1.3-2.8-1.3-4.3-0.1-19 0-38-0.2-56.9 0-4.4 1.5-5.8 5.8-5.7 43.1 0.1 86.3-0.5 129.4 0.2 29.1 0.5 58.2-1.1 87.2-0.1 8.8 0.3 17.6 1.1 26.4 0.8q33.2-1.1 66.4-0.8c1.7 0 3.6-0.6 5.4 1.1-1.4 2.5-3.7 1.8-6.2 2.2-10.2 0.1-20 0-29.8 0.1-5.5 0-6 0.5-6 6-0.1 17.4 0 34.8 0 52.2 0 2.5 0.1 5-0.6 7.9-0.3 0.8-0.4 1-1 1.6-1.5 1-2.9 1.2-4.2 1.2-13.9 0.2-27.8-0.1-42.2 0.2-0.7-0.5-0.9-0.7-1.4-1.3-1-2.9-0.8-5.4-0.8-7.9 0-17.5 0-34.9 0-52.4 0-7.1-0.4-7.5-7.7-7.5-8.8 0-17.6-0.1-26.4 0-7.9 0.1-8.7 0.9-8.7 8.6 0 16.9 0 33.9 0 50.9 0 2.4 0.2 5-1.1 7.7-1.7 1.5-3.3 1.7-5 1.7-12.7 0-25.4 0.4-38.7-0.3-0.7-0.2-1-0.4-1.7-0.8-1.2-1.5-1.2-2.8-1.1-4.1 1-16.5 0.3-33 0.4-49.5 0-14.2-0.2-14.2-14.2-14.2-7.8 0-15.7 0-23.5-0.1-3.6 0-5.3 1.4-5.1 5 0 0.7 0-0.1 0 0.5 0.6 16.4-0.8 32.7-1.1 49 0 4 1.1 7.9 0.2 12.3-0.4 0.7-0.6 1-1.2 1.4-15.1 2.5-29.8 2.3-44.9 1-0.7-0.4-0.9-0.6-1.3-1.3-1.1-2.8-0.9-5.4-0.9-7.8 0-17.2 0.1-34.4 0-51.5 0-7.9-0.7-8.5-8.6-8.5-9.5 0-19-0.1-28.5 0-5.2 0.1-5.7 0.5-5.7 5.8-0.1 14.5 0 29 0 44-0.9 4.8 1.2 9.5-2.1 13.6z"/><path class="r" d="m608.7 691.8c0.3 10.4 0.3 20.5 0.3 30.7 0 8.5 0 8.5-8.3 8.5q-101.1 0-202.2 0c-2 0-4 0.3-6.2 0.7-2.1 0.8-2.7-0.5-3.2-1.7-4.7-12.2-11.9-22.8-20.6-32.5-0.5-0.6-0.8-1.4-1-2.6 0.3-1.6 0.7-2.6 2.1-3.6 11.6-0.7 22.7-0.2 33.8-0.2 61.8-0.2 123.5-0.1 185.3-0.1 4.1-0.1 8.2 0.8 12.9 0.1 0.9-0.1 1.3-0.2 2.1-0.1 1.8 0.1 3.3-0.2 5 0.8z"/><path class="s" d="m609.3 690.3c-0.3-28.5 0.4-56.7-0.5-84.8-1.6-49.6-0.3-99.2-0.7-148.8-0.1-6.9 0.5-13.9 5-19.9 3.6-4.9 8.5-7.3 14.4-7.8 18.2-1.6 36.5-0.7 54.8-1.1 5.7-0.1 11.3 0.8 16.9 1.3 9.1 0.8 14.9 7.7 15.9 16.8 1.9 17.9 0.8 35.9 0.8 53.9 0.2 57.1 0.1 114.2 0.2 171.4 0 4-0.2 7.8-3.1 11.4 0.1 0.7 0.2 0.9 0.1 1.5-3.1 2.6-6.2 4.4-10.2 5.2-4.9 1.4-9.3 3.2-14.1 0.5-0.5-3.6 2-5.1 4-6.7 13.2-10.3 11.4-7.5 11.7-24 0.2-15.9-0.7-31.7 0.8-47.5 1-11-1.1-22-0.8-32.9 1.1-36 0.9-72 1-108 0-6.6-0.9-13.2-1.4-19.9-0.6-7.2-4-10.5-11.1-11.1-20.7-1.9-41.3-2-61.9-0.2-8.3 0.8-11.7 4.5-12.4 12.8-0.2 2.5-0.1 5-0.1 7.5q0 110.3 0 220.5c0 3 0.3 6-1 9.3-2.8 1.9-5.3 2-8.3 0.6z"/><path class="s" d="m372.3 590.2c-1-4-2-7.4-7.1-7.4-1.7 0-3.6-1-4.2-3.4 2.1-2.7 5.1-2.9 7.9-2.9 17.7 0.2 35.6 0.3 53.3 0.5 20.3 0.1 40.6 1.2 60.9 0.4 3.7-0.1 5.3-1.6 5.4-5.4 0-3.7-0.8-7.3-0.5-11.4 0.4-1.1 0.7-1.6 1.6-2.3 6.1-2.4 12.1-2.8 18-2.8 26.8 0.2 53.5-0.9 80.3-0.5 1 0 2 0 3.4 0.5 0.2 1.7 0 3.2-0.3 5.1-3.9 1.7-7.8 0.4-11.8 0.4-17.4 0-34.8-0.4-52.2 0.1-8.8 0.3-17.6-0.4-26.6 1.7-0.3 9.4-0.2 18.6-0.5 27.7-0.1 4.3 1 5.7 5.5 5.6 26.9-0.2 53.8-0.1 80.7-0.1 6.3 0 6.3 0 5.2 6.7-1.5 1.4-3 1.3-4.5 1.3-18.8-0.5-37.5 1.2-56.3-0.2-9.1-0.7-18.5-1.1-27.7 0.4-3.2 0.5-4.5 1.9-3.1 5.4 0.3 2.1 0.3 3.8 0.3 6-1.8 3.3-0.8 6.7-1.2 10.1 0.2 1 0.2 1.8 0.2 2.9-5.6 0-8.7 4.1-12.2 7.2-2.3 2.2-4.6 3.4-7.8 3.3-14-0.6-28-0.6-41.9-0.4-18.5 0.2-37.1-0.3-55.7 0.4-4.1 0.2-8.2 0-12.8-0.5 6.6-1.7 5.4-6.7 5.4-11.1 0-10.8 0-21.6 0-32.4-0.1-1.7 0.9-3.7-1.7-4.9z"/><path class="s" d="m803.7 572.3c-2.8 11.3-12.1 18.6-23.3 18.7-8.5 0.1-17 0.5-25.5-0.1-8.4-0.6-15.8-4.1-20.2-11.9-2.7-4.9-2.5-10.7-2.5-16-0.4-32.4-0.3-64.7-0.1-97 0-16.3 15.6-28.1 31.5-24.3 5.2 1.3 10.3 1.9 14.6 5.8 6.8 6.2 7.2 14.8 8.6 22.7 3.2 17.6 6.6 35.2 9.6 52.8 2.7 16.2 7.7 32.2 7.3 49.3z"/><path class="t" d="m702.7 688.4c3.8-0.6 6.2-3.6 9.9-4.4 5-0.2 3.2 2.9 2.9 5.6-0.2 0.6-0.3 0.8-0.6 1.4-0.4 0.8-0.7 1.2-1.1 2-0.6 5.3 1.5 7.2 6.1 6 3.8-1 7.4-2.7 11.3-3.6 11.1-2.5 22.1-2.7 32.9 1 0.8 0.2 1.6 0.4 2.4 0.6 2 0.4 4 1 5.6-0.9 1.5-1.9 1.6-3.9-0.1-6.2-0.5-0.6-0.8-0.9-1.4-1.4-0.7-0.4-1-0.6-1.7-1-1.3-1.1-2.5-1.2-4.1-0.8-0.8 0-1.2 0-2-0.3-3.6-2.4-7.2-2.5-11.3-1.4-3.2 0.5-5.9 0.7-9.1-0.4-2-2.9-0.6-4.3 2-4.7 6.2-1 12.4-2.7 19.2-1.7 1.1 0 1.9 0 2.9 0.1 4.6 3.8 10.4 3 15.5 5.4 0.4 0 0.7-0.1 0.9 0 0.4 0.7 1 0.8 1.9 1 0.3 0 0.3 0.1 0.4 0.1 1.6 1.4 3.9 1.4 6 2.8 0.7 0.1 1 0.2 1.5 0.4 3.8 3.1 8 3.2 12.3 3 3.5-0.1 6.9 0.3 10.7-0.4 13.4-0.6 26.4-0.5 39.9 0.1-1.9 1.9-4 3.7-7.1 3.4-0.7-0.1-1.9 0.2-2.2 0.7-3.5 6.8-9.3 12.6-9.4 21 0 3.8-0.5 7.6-1 11.3-0.3 2.8-2.2 4.3-4.9 3.8-9-1.7-18 0.9-27.5 0.1-14.8-20-33.9-31.2-58.9-29.8-19.7 1.2-36.2 9.7-48.5 25.6-1.2 1.6-2.5 3.1-4 4.9-8.1 0.8-16-1.3-23.9-0.7-3.4 0.2-3.4-1.1-2-3.9 5.9-11 14.2-20 23.5-28 2.9-2.6 4.3-3.7-0.6-4.8-0.4-0.1-0.7-1-1-2 2.6-2.2 5.6-0.8 8.4-1.4 2.1-0.4 4-1.3 6.2-2.5z"/><path class="r" d="m200.3 732.2c-1.9-1.9-4-1.2-5.9-1.2-25.7 0-51.4 0-77.1 0-3 0-6.4 0.4-6.3-4.7-1.5-3.3-1.6-6.5-1.1-10 2-4.3 4.2-7.7 9.2-7.8 1 0 2.1-0.4 2.4-1.5 0.4-1.4-1-1.8-1.9-2.5-3.3-2.2-5.2-5.1-3.9-9.5 1.2-1.1 2.3-1.2 3.5-1.3 4.4-0.1 8.7 1.2 13.2 0.3 1.7-0.3 3.4 0.9 4.9 2.7 0.4 0.9 0.5 1.4 0.4 2.3-0.1 0.6-0.2 0.8-0.6 1.3-0.9 0.8-1.6 1.1-2.4 1.4-3.7 1.4-5.6 3.8-4.5 7.9 0.4 1.8-0.2 3.7 0.8 5.7 2.4 4.1 5.4 7 10.2 7.4 9.3 0.8 14.7-6.4 11.5-15.1-0.5-1.3-1.1-2.5-2-3.9-0.3-0.4-0.4-0.6-0.9-1.3-0.7-0.8-1-1.1-1.6-1.6-0.4-0.3-0.6-0.4-1.1-0.7-1.8-1.2-3.9-0.7-5.4-2.3-0.1-3.7 2.1-5 5.1-4.5 3.8 0.5 7.4-0.4 11.5-1.3 1.5-0.7 2.8-0.4 4.4-0.7 0.5-0.2 0.6-0.2 1-0.4 0.5-0.1 0.6-0.3 1.1-0.5 7.6 0 14.9 0 22.6 0.1 1.3 0.5 2.2 1.1 3.5 0.2 5.5-0.8 10.8-0.4 16.5-0.2 1.3 0.5 2.2 1.1 3.5 0.2 5.5-0.2 10.8-0.3 16.5-0.4 0.6 0.2 0.8 0.3 1.2 0.8 0.2 0.6 0.2 0.8 0.3 1.4-3.4 6.5-8.5 11.4-12.7 16.9-4.5 6-8.1 12.5-11.8 19-0.9 1.6-1.2 3.9-4.1 3.8z"/><path class="s" d="m778.6 402.7c1.8 1.7 1.6 3.3 0.5 5.1-2.3 1.1-4.3 0.7-6.3 0.7q-146.4 0-292.9 0c-119.2 0-238.5 0-358.2-0.2-0.6-1.6-0.6-3-0.7-4.9 7.4-2.5 14.9-1.2 22.3-1.2 2.8 0 5.7 0.3 8.5 0.3 114.9 0 229.9-0.1 344.8 0.1 15.2 0 30.3 0 45.4-0.1 61.7-0.5 123.3 1.6 184.9 0.8 14-0.1 27.9-0.2 41.9-1.2 3.1-0.2 6.3-0.5 9.8 0.6z"/><path class="m" d="m778.9 402.6c-7 0.1-14.1 1.5-21.1 2-5.9 0.5-11.8 0.1-17.7 0.2-35.7 0.4-71.4 1.1-107-0.1-34.8-1-69.5-0.6-104.3-0.6-126.3-0.2-252.7 0-379-0.3-9.2 0-18.6-0.7-28.3-0.8 1-3 3.9-2 6.2-2 56.5 0 112.9 0 169.4 0 158.4 0 316.8 0 475.2 0 2.2 0 4.7-1.1 6.6 1.6z"/><path class="j" d="m601.7 690.7c-0.2 3.1-2.5 2.5-4 2.1-4.3-1.2-8.6-0.8-12.9-0.8q-91.4 0-182.7 0c-10.7 0-21.4 0-32.6 0-1.7 1.3-3.6 1.2-5.2 2.3-3.7 0.1-6.4-1.1-9.1-3-4.6-3.4-10.1-5.3-14.9-8.6-2.8-2-6.1-0.8-7.9 2.6-0.5 1.1-0.6 2.6-2.6 2.9-8.2-5.5-17.4-6.8-26.4-7.6-14.6-1.4-28.9 0.3-42.4 6.7-0.9 0.4-1.9 0.7-2.7 1.2-2.1 1.2-4.3 2.5-3 5.4 1.3 2.7 3.7 2.3 6 1.3 8.3-3.5 16.9-6.1 25.9-7.1 7.4-0.9 14.9-0.9 22.1 2.4-0.9 3.5-3.6 2.7-5.7 2.8-4.9 0.5-9.8-1.5-14.8-0.5-4.7 0.9-9.4 1.7-12.6 5.8-1.5 1.9-4.5 1.5-6 4-1 0.4-1.7 0.4-2.8 0.4-2.4 0-4.4 0.2-6.3 0.3-5.3 0.3-8.3-2.1-10.3-6.8-3.5-8.6-4.8-9.2-14.2-8.2 10-9.1 22.4-14.3 35.7-17.1 29.9-6.3 57.8-0.9 83.4 15.9 3.4 2.2 6.8 3 10.8 3 76.8-0.1 153.6 0 230.4 0.1 1.5 0 3 0.2 4.8 0.5z"/><path class="b" d="m502 432.4c1.7-0.4 3.4-0.4 5.4-0.5 2.7-1.4 3.6-0.4 3.6 2.1 0.1 20.8 0.4 41.6 0 62.4 0 5.1-1.6 10.5-5 15.2-1.2 3.8-4.2 5.5-6.9 8-3.1 1.3-5.9 2.1-9.1 3.2-11.5 1.3-20.2-3.8-26.8-15.8-0.5-2.1-0.6-3.7 0.6-5.6 0.3-0.3 0.4-0.3 0.5-0.3 6.3-1.2 12.5-1.3 18.8-0.8 6.6 0.6 13.2 0 19.8-0.5 2.6-0.1 4.2-1 3.1-4-0.5-1.6-0.7-3.4-0.1-4.9 2.6-8.5 1.6-17.2 1.6-25.7-0.1-6.9 0.9-13.6 1.1-20.4 0.2-5.5-0.2-10.3-6.6-12.4z"/><path class="b" d="m234.4 500.7c0.3 0.4 0.5 0.8 0.6 1 1 1.4 1.3 2.7 0.8 4.6-3.7 5.5-7.1 10.7-13 13.7-4.6 2.5-9.4 3.9-15.1 3-3.9-1.4-7.7-2.2-10.4-5.8-0.3-0.6-0.5-0.9-1.1-1.1-4.5-2.6-5.1-7.5-7.4-11.7-0.6-1.1-0.8-1.9-0.8-3 0-1.4 0-2.5 0-4 1.9-4.3 0.4-8.5 0.9-13 3.3 0.6 2.5 3.5 2.6 5.8 0.2 10.7-1.6 10.4 10.7 10.2 9.2-0.1 18.3 0.7 27.5-0.6 1.5-0.3 3-0.2 4.7 0.9z"/><path class="i" d="m121.5 408.4c45.7-0.3 91.6-0.4 137.6-0.4 172.9 0 345.9 0.1 519.2 0.1-1.2 1.7-3.3 0.8-5.2 0.8q-142.4 0.1-284.8 0.1-181.5 0-363.1 0c-1.1 0-2.3-0.2-3.7-0.6z"/><path class="i" d="m489.5 522.4c2.7-2.1 5.6-2.5 8.6-3.5 4.1-1.1 4.3 1.8 4.3 3.9 0.2 9.1 0.6 18.1-0.4 27.6-0.7 4.3 1.6 4.7 4.6 4.6q39.9-0.5 79.8-0.8c1.7 0 3.7-0.8 5.2 1.2-23.2 0.4-46.5 0.7-69.8 0.5-10.5-0.1-20.8 0.6-31.4 3.1-1.6-1.1-1.9-2.6-1.9-4.1-0.2-9.9-0.3-19.8 0.1-29.7 0-0.8 0.3-1.6 0.9-2.8z"/><path class="j" d="m714.7 691.4c-1.1-2.4 2.1-5.2-1.4-7.4-0.4-0.1-0.3-0.5-0.3-0.7 12-4.4 24.2-7.3 37-7.2 4.5 0 8.9 0.6 13.6 1.8-5.6 1.2-11.7 2.1-17.7 3.1-1.5 0.2-3.6-0.7-3.8 2.3-0.2 0.7-0.4 1.1-0.7 1.2-8.9 1.7-17.4 5-26.7 6.9z"/><path class="s" d="m502.1 550.9c-2.1-8.9-0.7-17.8-1.2-26.6-0.1-1.8 1-4.1-2-5.3 1.9-2.3 4.2-4.5 6.8-6.9 2.1 1.4 2.3 3.5 2.3 5.7 0 7.4 0.4 14.9-0.1 22.3-0.3 4 0.3 9.1-5.8 10.8z"/><path class="m" d="m500 609.6c-3.3-0.5-1.9-3.1-1.8-5 0.2-2 2.2-1.5 3.6-1.6 12.1-1.2 24.2-0.5 36.4-0.1 17.3 0.5 34.6 0.1 52.4 0.1 0.1 2.5-1.8 2-3.4 2-15.1-0.5-30.2 2.1-45.3 0.9-11.8-1-23.6-0.7-35.4-0.8-2.7 0-6.4-0.6-6.5 4.5z"/><path class="u" d="m137.4 698.3c-2.7-3.3-5.6-4.5-8.8-2.3-2.6 1.8-3.7-1.3-5.8-1-2 0.2-3.9 0-6.3 0-2-2.6-0.8-3.6 2.1-4 3.3-1.2 6.4-0.6 9.9-0.4 4.6 0.6 8.7 0.5 13.2 0 1.4-0.2 2.4-0.3 3.8-0.3 0.6 0.1 0.8 0.1 1.3 0.4 0.2 0.2 0.7 0.3 1 0.4 3.6 1.2 7.1-1.2 10.8 0.7-2.7 3.5-6.9 3.5-10.7 2.8-3-0.5-4.7-0.2-5.9 3-1.3 1.7-2.7 1.7-4.6 0.7z"/><path class="t" d="m118.6 690.7c-0.3 1.7-3.1 1.2-2.6 4 0.1 4.3 1 7.9 5.4 9.2 1.5 0.5 2.8 1.3 2.4 3.1-0.5 1.7-1.9 3.1-3.6 2.9-4.3-0.7-6.6 1.7-8.8 5.1-2.2-6.6-2-13.3-1.4-20 0.2-1.9 1.3-3.4 3.7-4.3 1.8-0.2 3.1-0.2 4.9 0z"/><path class="m" d="m500.5 563.1c-0.9-0.5-1.5-1.2-0.7-1.6 0.8-0.4 1.9-0.5 2.8-0.5 25.4-1.3 50.8-1 76.2-1 3.8 0 7.5 1.6 11.8 1-1 1.8-2.9 1-4.7 1-20.5 0.1-41.1 0.1-61.7 0.1-7.8 0-15.5-0.3-23.7 1z"/><path class="j" d="m113.8 690.4c-2.1 2.6-3.1 5.4-2.9 9 0.3 4.8 0.1 9.8 0.1 15.1 0 3.9 0 7.2 0 11-0.4-0.1-0.8-0.6-1.5-1.3-0.2-3.9-0.3-7.6-0.2-11.8 0.3-1.3 0.2-2-0.1-3-0.2-0.2-0.4-0.5-0.4-0.6-1.7-6-2.6-11.9 0.9-17.8 0.6-0.4 0.7-0.5 1.2-0.8 1.1-0.1 1.8 0 2.9 0.2z"/><path class="j" d="m815.6 690.3c0.3 0.4 0.2 0.9 0 1-6.8 1-13.6 1.6-20.3-0.7-0.8-0.3-1.5-1.2-2.3-2.1 7.2 2.6 14.8 1.1 22.6 1.8z"/><path class="j" d="m782.2 683.4c-5.1-0.6-11.1 0.7-15.3-4.6 5.3 0.4 10.3 2 15.3 4.6z"/><path class="j" d="m608.6 690c2.7 0 5.1 0.1 8 0.1 1.2-0.7 1.9-0.5 2.7 0.5-0.1 1.3-0.6 1.8-1.9 1.7-2.8 0.2-5.2 1.2-8-0.2-1.9-0.2-3.4-0.4-5.2-0.8 1-1.6 2.6-0.9 4.4-1.3z"/><path class="j" d="m141.6 690.3c-3.6 3.2-8 1.6-12.5 0.7 3.9-1.4 8-0.8 12.5-0.7z"/><path class="j" d="m159.4 692c-3.9-0.1-7.3-0.2-11.1-0.6 4.4-1.6 9.1-1.2 14.3-0.3-0.5 1.1-1.7 0.8-3.2 0.9z"/><path class="m" d="m499 625.6c-1.4-2.9-1.8-6.2 0.6-9.5 0.6 3 0.3 6.1-0.6 9.5z"/><path class="j" d="m228.4 692.3c-0.4-0.3-0.4-0.8-0.4-1 0.3-0.7 0.9-0.8 1.7-1 2-0.9 3.8-1.5 5.9-2.3 0.3-0.1 0.5 0.1 0.5 0.1-0.7 4.4-2.2 5.3-7.7 4.2z"/><path class="j" d="m791.3 687.3c-2.3 0.9-4-0.7-6-2.2 2.2-0.3 4.1 0.4 6 2.2z"/><path class="j" d="m190.8 690.4c0.2 1.1 0.2 2.2-1 2.4-1.2 0.3-1.6-0.6-1.9-1.9 0.8-0.4 1.6-0.5 2.9-0.5z"/><path class="j" d="m210.7 690.4c0.2 1.1 0.3 2.2-0.9 2.4-1.3 0.3-1.6-0.6-1.9-1.9 0.8-0.5 1.6-0.6 2.8-0.5z"/><path class="d" d="m112.5 633.9c-1.6-1-2-2.7-1.5-4.7 0.7 1.3 1.1 2.8 1.5 4.7z"/><path class="q" d="m187.8 501.2c1 0.4 1.1 1.3 0.9 2.6-1.5-0.2-1.8-1.1-0.9-2.6z"/><path class="d" d="m110.8 588.8c-1 0.2-1.2-0.6-1.7-1.6-0.2-0.3 0.3-0.4 0.5-0.4 0.6 0.5 0.9 1.1 1.2 2z"/><path class="d" d="m112.5 647c-1.1-0.1-1.1-0.9-0.8-1.8 0.4 0.4 0.7 0.9 0.8 1.8z"/><path class="d" d="m112.1 642.8c-1-0.5-0.5-1.2 0-2 0.2 0.5 0.2 1.1 0 2z"/><path class="d" d="m112 651.2q-0.3-0.8 0.1-2.3c0.9 0.7 0.4 1.4-0.1 2.3z"/><path class="j" d="m785 684.5q-0.7 0.2-1.8-0.4 0.6-0.2 1.8 0.4z"/><path class="i" d="m229.6 690.1c-0.1 0.3-0.6 0.6-1.4 0.9-0.2 0.1-0.3-0.3-0.4-0.5 0.5-0.3 1-0.4 1.8-0.4z"/><path class="i" d="m164.9 690.3q0.1 0.5-0.7 0.6-0.2-0.5 0.7-0.6z"/><path class="i" d="m146.9 690.7q-0.3 0.3-0.9-0.2 0.3-0.5 0.9 0.2z"/><path class="r" d="m233.5 755.2c1.8-8.6 7.3-14.8 12.2-21.3 9.4-12.4 21.6-20.4 37-23.3 26-4.8 47.2 3.3 63.7 23.9 4.3 5.5 8.3 11 10.8 17.6 1.1 2.8 0.6 3.9-2.6 3.9-39.9 0-79.7 0-119.5-0.1-0.5 0-1-0.2-1.6-0.7z"/><path class="u" d="m270.3 702.9c-0.1-0.9-0.2-2.3 0.4-2.7 8.1-6 16.3-11.5 27.4-8.5 3.2 0.9 6.9 0.6 10.6-0.3 0.6-0.7 1-0.9 1.9-0.9 3.4 2.4 6.9 3.6 11 3.8 2.2-0.6 4.2-0.4 6.2-1.5 0.9-0.6 1.4-1.1 1.4-2.2-0.1-1 0-1.6 0.5-2.4 2.9-6.9 7-10 11-6.9 5 3.9 11.2 5.3 15.9 9.5 1.7 1.6 4.5 2 7.1 3.1 1.6-0.9 2.7-0.3 4.1 0.8 10.3 11.1 18 23.3 23.9 37.1 0.9 1.7 1.5 3.2 2.2 5 3.1 4.5 4.1 9.4 4.3 14.8 0.2 3.4-1 4.3-4.1 4.5-7.9 0.4-15.6-1.3-23.3-1.1-1.5 0-2.3-0.5-2.8-2.2-5.1-17.5-15.4-31.4-30.3-42-15.6-11.2-33.1-13.1-51.5-11.1-5.3 0.6-10.5 1.4-15.9 3.2z"/><path class="l" d="m398.5 752c-1.8-4.7-3.1-9.4-4.4-14.5 63-0.4 125.9-0.5 188.9-0.5 5.4 0 7 1.7 7 6.8 0.1 5.3-1.9 7.1-7.7 7.3-61.1 2-122.2 0.4-183.8 0.9z"/><path class="u" d="m228 692.4c3.1-0.4 6.2-0.2 8.1-3.9 3.3-1.2 6.3-3.3 9.9-1.1 2.5 1.6 4.8 2.6 5.3 6.3 0.9 6.5 3.6 8.2 10.2 8.3 1.7 0 3.3 0.3 5.2 0.7-3.5 3.8-8.7 4.9-13 7.7-15 10-24.4 24.2-30.3 40.6-1.6 4.5-4.6 4.6-7.4 4.8-6.1 0.5-12.3 0.2-18.5 0.2-2.1 0-3.4-0.9-3.5-3.6-0.2-0.6-0.3-0.8-0.3-1.4 0.5-1.1 1-1.9 1-3.2 0.4-3.4 0.5-6.6 2.3-9.6 2.9-1.1 2.9-3.3 3-5.8 3.9-2.6 4.5-7 6.4-10.4 5.8-10.1 12.9-19 20.6-27.6 0.4-0.5 0.6-1.1 1-2z"/><path class="r" d="m617 692.5c0.6-0.6 1.1-0.8 1.9-1.3 4.6-3 9.5-1.4 14.7-1.4 4.1 1.3 7.8 0.7 11.4 0.8 9.8 0 19.6 0 29.4 0 2 0 4-0.2 6.2 1.1-3.7 5.7-9.2 9.8-13.2 15.3-4.9 6.6-10.8 12.5-12.6 21-0.5 2.1-2.4 3-4.6 3-9.7 0-19.3-0.1-29 0-3.8 0.1-4.3-2-4.2-5.1 0.1-10.9 0-21.9 0-33.4z"/><path class="l" d="m197 737.8c-0.1 3.5-0.7 6.8-1.2 10.5-0.2 1.2-0.9 1.7-1.5 2.5-0.1 0.3-0.2 0.7-0.3 0.9-21.5 0.3-42.9 0.3-64.4 0.2-2.3 0-4.6-0.7-6.9-0.8-4.3-0.2-4.2-3.6-4.6-6.5-0.4-3.1 0.7-5.9 3.8-7.4 0.3-0.1 0.7-0.1 1-0.1 24.6 0.1 49.2-0.7 74.1 0.7z"/><path class="f" d="m326.7 780.9c-5.4 15.7-26.6 23.6-43.1 16.4-7.4-3.2-13.6-7.7-16.6-15.9 14.5-0.4 29.1-0.4 43.7-0.4 5.2 0 10.4-2.3 16-0.1z"/><path class="j" d="m681.4 692c-14.1 0-27.7 0-41.4 0-1.8 0-3.6-0.3-5.7-0.7 0-2.6 1.9-2.7 3.4-2.7 16.4-0.2 32.7-0.5 49 0.1 0.5 0 1 0.3 1.8 0.7 5 1.1 9.5 0.6 14.2-1.2-3.4 4.7-8.8 3.6-14.2 3.8-2.5 0-4.6 0-7.1 0z"/><path class="r" d="m506.3 134.3c0-1.7 0.3-3.1 0.7-4.9 5.8-1.1 9.4-5.8 14-8.6 9.9-6 20.7-8.1 32-9.9 17.9-2.9 33.6 3.1 49 10.8 3.2 1.5 6.8 3.4 8 7.9 0 0.3-0.3 0.5-0.5 0.6-0.5 0-0.8 0.2-1.3 0.6-7 7.1-15.5 12.6-19.5 22.4-5.3 9.4-8.9 19.1-11.6 29.5-9.4 5.5-18 11.6-26.5 18.3-6.3-1.2-11.3-4.7-15.6-8.7-13.8-12.6-23.9-27.6-27.5-46.4-0.7-3.7-0.6-7.5-1.2-11.6z"/><path class="m" d="m577.2 183c0.8-10.7 4.1-20.6 11.2-29.3 2 5.8 1.5 11.8 1.7 17.9 0 2.7 0 5.7 3.6 7.1-5.2 1.6-10.6 2.9-16.5 4.3z"/><path class="m" d="m623.8 178.8c-2 1.2-3.9 0.3-5.9-1.2 2-0.9 3.8 0.2 5.9 1.2z"/><path class="m" d="m687.8 240.9c-0.9 0-1.6-0.4-1.6-1.7 1-0.1 1.6 0.4 1.6 1.7z"/><path class="m" d="m635 182.5c-0.9 0.4-1.6 0.2-2-1 0.8-0.5 1.5-0.3 2 1z"/><path class="m" d="m598.8 177.7c-0.3 0.6-0.8 0.9-1.6 1.1 0-0.9 0.1-1.9 1.6-1.1z"/><path class="j" d="m608.3 131q-0.1-0.4 0.8-0.8 0 0.4-0.8 0.8z"/><path class="p" d="m538.7 217.2c2.5 0.6 4.4 1.5 4.7 4.4 0.4 4.5 2.8 2.7 5 1.2 8-5.7 16.6-10.3 26.4-11.8 9.4-1.5 18.9-2.8 28.6-1.3 5.2 0.8 10.6 0.6 15.7 2.3 6.9 2.3 13.6 4.7 19.6 9.1 6.3 4.5 12.4 9.2 17.4 15.3 9.4 11.6 16 24.3 17.9 39.2 0.5 3.9 1.1 7.8 1.9 12.1-4 6.7-10.8 9.4-16.9 12.7-17.9 9.6-37.2 11.7-56.5 6.5-32.9-8.9-54.8-33.6-60.4-66.8-0.7-4.4-0.1-9-0.1-13.5-0.1-1.6 0.4-3.6-1.8-4.1-1.9-0.4-2.1 1.7-2.9 2.8-0.9 1.5-1.1 3.7-3.9 3.7 0.6-4.3 3-7.9 5.3-11.8z"/><path class="v" d="m355.2 285.2c5.5-7 13.1-11.5 19.6-17.3 11.6-10.3 23.8-20.1 35.7-30 3.9-3.2 7.9-6.4 12.2-9.8 5.9 2.2 11.6 4.6 17.9 3 3.8-0.9 6.9-0.9 9.7 2.3 2 2.3 4.6 2.9 7.7 2.2 3.5-0.9 7-1.6 10.6-2.4 1.6-0.3 2.8 0.1 4.1 1 4.3 2.7 8.6 5.1 13.3 0.5 2.2-2.1 3.3 1.7 5.6 1.3 3.8 3.8 7.2 7.4 12.1 9.9 2 2.4 0.3 4.3-0.4 6.7-0.2 3.4-0.2 6.5-0.2 10 0.4 0.9 0.9 1.4 1.5 2.1 0.2 1 0.3 1.8 0.3 3 1.4 3.5 3.1 6.4 6.7 8.1 2.4 0.4 3.7 1.5 4.3 3.9 0.1 0.8 0.1 1.2 0.1 1.9 0 1.4 0 2.5 0 4-11.1 0.4-22.2 1.6-33.1 0.8-11.2-0.8-22.3 0.2-33.4 0-11.4-0.3-22.9 0-34.3-0.1-12.7-0.1-25.4 0.1-38.2-0.2-7.1-0.2-14.3 0.7-21.8-0.9z"/><path class="e" d="m510.4 243.9c1.4-5.4 6.2-6 10.7-6.8 2.2-0.4 4.6-0.1 7.4-0.1 0.3 1.8-1 2-2.4 1.9-5.8-0.2-11 1-15.7 5z"/><path class="e" d="m511.8 275.7c-5.1 0.5-5.8-3.8-7.1-7.4 2.5 2.2 4.7 4.6 7.1 7.4z"/><path class="e" d="m503.4 252.9c0-2 0.3-4 0.6-6.5 1.1-0.7 2.2-1 3.6-1.3q-1.6 3.8-4.2 7.8z"/><path class="e" d="m530.4 234.9c-0.2-1.5 0.3-2.9 2-3.8 0.4 1.6-0.2 2.9-2 3.8z"/><path class="e" d="m504.8 264.7c-0.8 0.2-1.5-0.1-1.7-1.4 0.8-0.2 1.5 0.1 1.7 1.4z"/><path class="e" d="m516.2 281.8c-0.9-0.2-1.2-0.7-0.5-1.6 1 0.2 1.3 0.7 0.5 1.6z"/><path class="f" d="m545.9 348.2c-0.3 0.2-0.8 0.1-1.5 0 0.2-1 0.8-1.1 1.5 0z"/><path class="f" d="m750.8 800c-15.7-0.1-27.2-6.5-33.5-20.6-9.3-20.7 6.8-45.8 28.5-46.6 17.9-0.6 28.9 7.9 34.1 21.5 8.3 21.6-5.4 43.1-29.1 45.7z"/><path class="a" d="m576.4 194.4c18.6-9.6 37.2-11.2 56.5-3.6 4.1 1.6 4.8 4.2 3.6 7.9-1.2 3.8-3.9 3.5-7.2 2.5-15.5-4.8-30.8-5.6-45.7 2.3-3.4 1.7-6.1-0.5-8.3-2.9-2-2.2-1.3-4.3 1.1-6.2z"/><path class="o" d="m300.3 360.3c1.3 9.8 1.3 9.3-8.3 9.9-9.9 0.6-19.8 0.8-29.7 0.8-1.8 0-3.7-0.2-5.4-0.5-6.6-1.3-6.8-1.6-5.1-9.1 16.1-0.5 32.1-1.7 48.5-1.1z"/><path class="o" d="m369.6 361c0.5 1 0.7 2 0.9 3 1.2 4.8 0.3 6-4.6 6-12.7 0.1-25.4 0.1-38 0.1-7.7 0-8.1-0.6-6.1-8.8 13.8-0.5 27.4-1.6 41.5-1 1.6 0.6 2.8 0.8 4.4 0.7 0.7 0 1.1 0 1.9 0z"/><path class="o" d="m360 357.1c-11.8 0-23.1-0.1-34.4 0-3.3 0.1-4.9-0.6-4.8-4.3 0.1-3.4 1.2-4.8 4.7-4.8 13.1 0.2 26.3 0 39.4 0.1 2.3 0.1 5.2-0.3 6 3 1 4.3-0.2 5.8-4.4 5.9-2 0.1-4 0.1-6.5 0.1z"/><path class="o" d="m269 348.1c9.5 0 18.5 0.1 27.4 0 3.7-0.1 5.6 1.2 5.6 5.2 0 4.2-2.8 3.8-5.5 3.8-13.3 0-26.6 0-39.9 0-2.7 0-4.9 0-4.8-3.8 0.1-3.4 0.8-5.4 4.7-5.2 4 0.2 8 0 12.5 0z"/><path class="f" d="m367.7 360.7c-1.1 1.6-2.4 1.6-3.8-0.1 1.1-0.6 2.3-0.8 3.8 0.1z"/><path class="a" d="m594.7 93.1c2.1 0.9 3.8 1.5 5.3 2.5 2.1 1.5 2.2 3.6 1.5 5.9-0.7 2.4-2.4 3.6-4.8 3.4-1.6-0.2-3.3-0.6-4.8-1.1-14.6-4.6-28.9-4-43 1.7-3.4 1.4-6.2 2.1-8.3-2.1-1.8-3.4-1.6-5.7 2.1-7.5 7-3.5 14.5-5.1 22.1-5.7 10-0.7 20-0.8 29.9 2.9z"/><path class="o" d="m459.1 375.3c29-0.5 57.9-0.5 87.3-0.5 0.5 1.3 0.7 3.4-1.1 2.9-4.7-1.5-9.2 0.2-13.8 0.2-22.5 0-44.9 0.1-67.4 0-1.8 0-4.6 1.4-5-2.6z"/><path class="l" d="m153.8 374.4c-2.8-0.4-2.8-0.4-0.8-5.3 1.7 1.5 1.3 3.3 0.8 5.3z"/><path class="w" d="m489.4 522c0.5 12 0.5 24 0.6 36.5-0.2 0.7-0.5 0.9-0.8 1.3-3.2 2.3-6.6 1.9-9.7 0.7-6.5-2.4-13.4-4.5-16.1-11.8-1.4-0.4-1.7 0.6-2.1 1.2-9.2 13.3-25.3 15.1-38.9 4.6-1-0.9-1.8-2-2.5-3.1-2.5-3.9-2.4-3.9-5.8-0.3-5.4 5.7-11 10.9-19.6 10.2-8-0.7-15-3.5-19.9-10-1.9-2.5-2.9-3-5.1-0.2-6.3 8.2-15.5 10.4-24.9 9.8-6.1-0.4-11.4-4.5-14.9-10-0.7-1.1-1-2.4-1.8-3.5-1.9-0.2-2 1.5-2.7 2.5-5.7 7.5-13.8 10.9-22.6 10.9-7.5 0.1-14.2-3.7-18.7-10-2.3-3.2-3.5-3-5.5 0.2-3.5 5.6-9.2 7.8-15.4 9.2-11.4 2.6-20-1.6-26.6-10.9-2.3-3.2-3.4-0.2-4.3 1.2-4.2 6.3-10.4 9.1-17.5 10.4-2.3 0.4-4.6 0.8-7.1-0.7-0.2-0.3-0.4-0.8-0.4-1-1.2-1.4-1.6-2.8-1.6-4.4-0.2-9.6-0.2-19.2 0-28.9 0-1.2 0.3-2.3 1.4-3.6 11.1 0.4 19.2-3.9 25.1-12.8 0.6-1 1.5-1.7 2.6-2.6 2.9-0.1 3.4 2.2 4.6 3.6 3.9 4.5 8.2 8.3 14.1 9.7 8.7 2 15.5-1.4 21.1-7.9 1.6-2 2.8-4.6 6.2-5.1 2.9 0.5 4 2.7 5.5 4.4 3.9 4.5 8.3 8.3 14.5 9 7.7 0.9 14-1.6 19-7.6 1.8-2.1 3.2-4.6 5.8-6.6 3.6-1 5.2 1.2 6.7 3.5 3.1 5 7.7 8.2 13.1 10.1 5.9 2.1 10.9 0.2 15.5-3.9 3.1-2.9 5.3-6.8 9.6-8.9 0.6 0 0.8 0 1.4 0.1 0.6 0.3 0.8 0.4 1.7 0.9 0.8 0.6 1 0.7 1.5 1.1 4.7 5.6 9.7 10.2 16.9 11.3 8.9 1.4 15.3-2.9 20.6-9.6 1.2-1.5 2-3.4 4.3-4.5 2.5-0.4 3.7 1 4.8 2.5 1.1 1.5 2.1 3 3.4 4.3 12.4 11.8 23.6 8.2 31.3-0.7 2-2.3 4-4.9 7.5-5.9 4.8 6.9 10 12.8 18.3 14.7 2.3 0.6 4.6 0.4 7.4 0.6z"/><path class="x" d="m207.2 560.4c10.8 0 19.7-3.2 25.5-12.9 1.8-3 2.8-3 4.5 0.4 3.8 7.8 13.7 12.1 22.1 11.4 9.1-0.9 16.3-3.8 20.2-12.8 1.3-2.9 2.6-0.1 3.4 1 2.7 3.5 5.2 7.1 9.7 8.9 14 5.7 25.4 2.2 33.4-10.7 0.3-0.5 0.3-1.4 1.2-1.3 1.4 0.2 1.9 1.4 2.2 2.5 1.1 3.8 3.6 6.3 6.7 8.9 5.9 5 12.3 4 18.7 3 6.7-1.1 11.7-5.1 15.2-10.9 1.5-2.3 2.8-2.1 4 0.2 4.8 8.6 12.8 11.6 22.1 11.9 8.7 0.2 13.9-5.8 18.6-11.8 2.6-3.2 3.4-3.8 5.2 0.5 3.3 7.5 15 12.4 23.6 11.1 9.2-1.4 15-6.8 19.5-15 4.7 12 14.1 15.1 25.7 15.2 1.1 5 1.3 10 1.2 14.9 0 3-1.2 4.2-4.2 4.1-15.1-0.6-30.2 0.7-45.3-0.8-5.9-0.6-12 1.1-17.8 0.6-15.6-1.4-31.3-0.3-46.9-0.7-4.6-0.2-9.3 0-14.3 0.9-6.3-1.9-12.3-1.1-18.2-0.6-5.5 0.4-10.9 0.8-16.3-0.1-4.2-0.7-8.3 0.3-12.4 0.5-6.9 0.3-13.8-0.2-20.7-0.7-3.3-0.2-6.3 0.7-9.4 0.9-5.2 0.4-10.3-1.1-15.4-0.9-9.7 0.3-19.3 1.1-28.9 0.7-8.8-0.3-17.6 0.3-26.3 0.2-4.1 0-6.3-1.2-5.9-5.8 0.2-4.1-1.4-8.2-0.7-12.8z"/><path class="c" d="m207 614c0.3-7.5 0.7-14.5 0.8-21.4 0-2.9 1.2-3.7 3.9-3.7q19.7 0.1 39.4 0c3-0.1 4.2 0.9 4.2 4q-0.2 19.7-0.1 39.4c0 2.8-0.9 3.9-3.7 3.9-9.9-0.1-19.7 0.2-29.5-0.2-8-0.3-15.8-5-15-16 0.1-1.9 0-3.7 0-6z"/><path class="v" d="m371.9 590c0 13.9-0.1 27.7 0.1 41.6 0.1 3.4-1 4.3-4.5 4.6-13.1 1.2-26.2 0-39.4 0-3-0.1-4.1-1-4-4.1 0.1-12.6 0.1-25.3 0.1-38 0-2.8 0.8-5.2 4.1-4.8 12.2 1.8 24.3-0.9 36.4-0.1 2.2 0.1 4.3-0.1 6.8 0.8 0.4 0.1 0.5 0 0.4 0z"/><path class="u" d="m313.8 624.9c0 10.2 0 10.3-9.6 11.5-11.9 1.4-23.9-0.7-35.9-0.4-2.1 0.1-2.3-1.3-2.3-3 0-13.6 0-27.3 0-41 0-2.1 0.9-2.9 3-2.9 13.7 0 27.3 0 41-0.1 3.7 0 3.8 2.2 3.8 5 0 10.1 0 20.3 0 30.9z"/><path class="i" d="m207 521.7c0.2 12.3 0.1 24.3 0 36.8-4 1.2-6.2-2.8-9.9-3.3-1.1-0.2-1.2-1.9-1-3.1 1.7-7.9 1-15.7 0.1-23.6-0.5-3.6-0.4-7.3 1-11.2 3.2 1.1 6.4 2.6 9.8 4.4z"/><path class="u" d="m371.4 501.3c-0.4-21.1-0.2-41.9-0.6-62.7-0.1-5.6 2.6-6.5 6.8-6.6 6.8-0.1 13.6 0 20.4 0 4.7-0.1 9.4 0.1 14-0.1 3.7-0.2 5.1 1.1 5 4.8-0.1 21.1-0.1 42.3-0.2 63.9-2.2 2.4-4.9 2.7-7.5 2.7-12-0.3-24 0.5-36.4-1.2-0.7-0.2-1-0.3-1.5-0.8z"/><path class="u" d="m234.8 500.6c-13.4 1.8-26.6 1.2-39.9 1.5-4.1 0.1-5.1-1.3-5-5.2 0.2-4.1 0.6-8.3-0.6-12.7-0.4-16.1-0.3-31.9-0.5-47.7-0.1-3.9 1.4-4.7 5-4.6 11.4 0.2 22.9 0 34.4 0 6.1 0 6.7 0.5 6.7 6.9 0.1 11.1 0.1 22.2 0.1 33.4-0.1 9.3-0.1 18.6-0.2 28.4z"/><path class="u" d="m281.2 501.2c-1.4-8.1-1.6-15.9-1-23.7 1-13.9 0.7-27.9 0.7-41.8 0-2.9 1-3.8 3.8-3.8q18.9 0.1 37.9 0c2.6 0 3.4 0.9 3.6 3.5 1.5 19.4 0.4 38.8 0.7 58.3 0 2.1-0.5 4.2-0.8 6.8-1.1 1.8-2.8 2-4.5 2q-18.1 0.3-36.2 0c-1.4 0-2.7-0.2-4.2-1.3z"/><path class="r" d="m501.5 432c8.5 2.8 8.9 2.9 8.4 12.4-0.7 13.1-1 26.2-0.9 39.3 0 1.5-0.2 3-1 4.3-1.2 2-0.8 4.2-1 6.3-0.3 2.3 3.4 3.8 1.5 5.8-1.9 2-5.2 1.4-7.6 1.5-8.2 0.4-16.4 0.7-24.6-0.2-3.6-0.4-7.5 1.5-11.6-0.3-0.5-22-0.6-43.9-0.8-65.8 0-3.3 1.9-3.4 4.2-3.4 11 0.1 22 0 33.4 0.1z"/><path class="b" d="m280.6 500.9c15 0 29.8 0 45.1 0 0.4 0 0.8 0.1 1 0.1 1.8 1.9 1.4 3.7-0.4 5.6-4 4.5-6.7 9.6-11.8 12.5-10.3 6-22 3.1-30-7.5-0.9-1.1-1.9-2.3-3.1-3.6-2-1.9-2.6-3.9-1.7-6.7 0.3-0.3 0.7-0.4 0.9-0.4z"/><path class="n" d="m464.1 506.4c-3.5 3.7-6.9 7.1-10.4 10.4-7.2 6.8-18 6.8-25.8 0.8-4-3.1-6.4-7.4-10.5-10.6-1.7-1.4-1.6-2.8-0.6-4.7 15.6-2.3 31-0.9 46.8-1.3 0.5 1.7 0.5 3.3 0.5 5.4z"/><path class="b" d="m417 501.7c0.1 1.6 0.1 3 0.1 4.8-3.6 4.5-6.3 9.4-11 12.4-10.7 6.6-23.2 3.2-31.7-8.8-0.5-0.4-0.7-0.5-1.1-0.9-0.2-0.3-0.2-0.3-0.2-0.3-0.2-0.2-0.4-0.3-0.8-0.7-0.2-0.3-0.1-0.3-0.1-0.4-2.1-1.9-2.7-3.9-0.4-6.5 10.6 0 21 0.3 31.4 0.7 4.3 0.2 8.5-0.6 13.1-1 0.4 0.1 0.6 0.5 0.7 0.7z"/><path class="n" d="m279.5 501c0.8 2 1.2 4 1.6 6.4-2.2 0.7-3.2 2.4-4.4 4-7.3 10.1-16.9 13.3-27.8 8.6-5.8-2.5-10.2-7.1-13.7-12.9-0.2-1.6-0.2-3-0.1-4.8 14.7-0.3 29.3 0 44.4-1.3z"/><path class="n" d="m371.8 501c-0.6 2.1-0.4 4.1 0.3 6.5-1.9 0.4-3.2 1.2-4.4 2.9-2 2.6-4.4 4.9-6.8 7.2-9.6 9.1-21.7 3.1-28.8-5.4-1.6-1.9-2-5.1-5.7-5.2-0.1-1.8 0.2-3.5 0.5-5.5 14.4-0.5 28.8-0.5 43.7-0.5 0.6 0 0.8 0 1.2 0z"/><path class="t" d="m368.3 694.8c-1.4-0.1-2.5-0.4-3.9-0.8 0-2.8 2.2-1.7 4.2-2 0.2 0.9 0.1 1.7-0.3 2.8z"/><path class="a" d="m689 689.4c-16.2 0.4-32.3 0.6-48.4 0.8-2 0-4 0.2-6.3 0.5-5 0.3-9.7 0.2-14.8 0.2-1-0.2-1.4-0.5-2.2-0.8-0.3-78.9-0.3-157.7-0.3-236.5 0-8.1 3.2-15.1 14.9-15.9 16.6-1.1 33.2-0.3 49.8-0.6 4.3-0.1 8.6 0.4 12.9 1 7.5 1.2 10.9 5.9 11.4 14.4 2 31.5 0.8 62.9 0.9 94.4 0 11.8-1.2 23.7-0.8 35.6 0.2 7.1 1.3 14.2 0.9 21.4-1.4 22.1-0.9 44.2-1 66.3 0 3.5-1.5 5.7-4.1 8-4.2 3.7-9.6 6-12.9 11.2z"/><path class="y" d="m383.4 635.3c-0.2-14.2-0.1-28.1-0.3-41.9 0-3.4 1.3-4.2 4.4-4.2q19.5 0.1 39-0.2c3.2 0 4.5 1.1 4.4 4.4-0.1 12.9 0 25.9 0 38.9 0 2.3-0.4 3.7-3.2 3.9-13.6 0.8-27.3 0.4-40.9 0.6-1.2 0-2.4-0.1-3.4-1.5z"/><path class="z" d="m442 617c0-8 0.2-15.5 0-23-0.1-3.3 0.8-4.8 4.4-4.8q19.5 0.2 39-0.1c3.6 0 4.5 1.5 4.4 4.8-0.2 10.3 0.3 20.6-0.8 30.9-0.6 5.7-5.9 10.8-12.9 11.1-10.3 0.4-20.6 0.1-30.9 0.3-2.8 0-3.3-1.3-3.3-3.7 0.1-5 0.1-10 0.1-15.5z"/><path class="m" d="m374.6 582.5c0.8-0.2 1.1 0.1 1 0.7 0 0.1-0.2 0.3-0.4 0.3-0.6 0.1-0.9-0.2-0.6-1z"/><path class="x" d="m752.4 453c10.9-3.1 20.8 1.3 22.9 13.4 5 29.6 11 59 16.4 88.5 0.8 4.5 1.6 9.1 1.3 13.9-0.3 6-4.7 11-10.6 11.1-9.1 0.2-18.1 1.8-27.3 0.3-7.7-1.3-12-4.9-12-12.7-0.2-34.3-0.1-68.6-0.1-103 0-6 4.2-9 9.4-11.5z"/><path class="a" d="m714.3 691.3c8.8-3.4 17.4-6.8 27.3-7.4 3.5-0.1 6.5-0.1 10 0 4-1 7.4 0.1 11.1 1.6 0.8 0.3 1.2 0.4 2 0.5 1.5-0.4 2.7 0 4 0.8 0.6 0.4 1 0.5 1.6 0.5 0.6-0.1 1 0.1 1.5 0.6 3.4 2.3 3.8 4.8 2.1 8.3-1.8 3.4-4.2 3.1-7.1 2.1-15.4-5.4-30.6-4.4-45.7 1.6-5.1 2.1-8.7 0.1-9.7-4.8-0.3-1.3 0.4-1.8 1.5-2.6 0.3-0.6 0.5-0.9 1-1.2 0.3-0.1 0.4 0 0.4 0z"/><path class="s" d="m826.2 721.2c-9.5 5.7-20.1 1.7-21.3-7.7-0.6-5.3 1.9-9.9 7-12.7 4.6-2.5 9.1-2.3 13 1 4.6 3.9 5 9.2 3.7 14.7-0.3 1.5-1.4 2.9-2.4 4.7z"/><path class="j" d="m763 685.3c-3.3-0.2-6.8-0.7-10.6-1.4 3.4-1.7 7-1.2 10.6 1.4z"/><path class="j" d="m768.9 686.7c-1 0.1-2.2-0.1-3.6-0.6 1.1-1.4 2.5-1.7 3.6 0.6z"/><path class="j" d="m713.9 691.3q0.1 0.3-0.5 0.8-0.2-0.3 0.5-0.8z"/><path class="j" d="m771.8 687.9c-0.2 0.1-0.6 0-1.1-0.4 0.2-0.1 0.6 0 1.1 0.4z"/><path class="s" d="m150.8 702c1.1 2 2.3 3.6 3 5.4 2.3 6.2 0 13.1-5 15.6-5.3 2.8-13.2 0.7-16.8-4.3-0.5-0.7-0.9-1.4-1.6-2.4-2.1-8.3-0.9-11.2 6.3-16 0.4-0.2 0.3-0.2 0.4-0.2 3.3-2.2 6.7-2.1 10.6-0.3 0.3 0.2 0.3 0.2 0.3 0.2 0.4 0.4 1 0.5 1.8 0.9 0.1 0.2 0.2 0.1 0.1 0.2 0.3 0.1 0.6 0.4 0.9 0.9z"/><path class="t" d="m136.7 700.1c-3.9 4.1-8.1 8.3-6.5 15.5-2.5-3.2-1.6-7.5-1.4-11.2 0.2-2.7 4.6-3.5 7.9-4.3z"/><path class="t" d="m147.9 699.7c-3.3-0.9-6.7-1.1-10.4 0.4-0.4-0.4-0.5-0.9-0.5-1.7 1.4-0.4 2.8-0.4 4.6-0.4 2.3 0.5 4.7-1.1 6.3 1.7z"/><path class="t" d="m149.8 700.8q-0.6 0.2-1.7-0.5 0.6-0.1 1.7 0.5z"/><path class="t" d="m150.9 702q-0.4 0.1-0.9-0.7 0.3 0 0.9 0.7z"/><path class="f" d="m109.8 690.4c-2 5.8-0.2 11.6-1 17.7-5.3-2-7.4-6.6-7.5-12-0.2-9.4-0.2-18.7 0-28 0.1-5.8 2.5-9.8 8.1-13.3 0 12.2 0 23.7 0.4 35.6z"/><path class="b" d="m109 709.5c1.1 0.2 1.1 1.1 0.5 2.2-0.3-0.5-0.4-1.2-0.5-2.2z"/><path class="a" d="m329.3 692.8c-1.7 2.7-4.1 2.2-6.8 2.1-4.1-0.5-7.5-1.8-11.3-3.3-0.7-0.3-1.1-0.4-1.9-0.5-9.5-3-18.9-2.5-28.2-0.7-7.1 1.4-13.9 3.6-20.3 6.7-3.3 1.5-5.6 0.5-7.1-2.4-1.7-3.1-0.4-5.3 2.6-6.8 22.9-11.3 46.4-11.7 70.2-3.6 1.6 0.6 2.5 1.7 3.3 3.4 0.1 1 0.1 1.8 0.1 2.9 0 1-0.1 1.5-0.6 2.2z"/><path class="j" d="m311 691.7c3.8-0.4 7.2 1 10.8 2.9-4.1 2.2-7.4-0.4-10.8-2.9z"/><path class="j" d="m329.4 693c-0.1-0.5 0-1.1 0.3-1.8 1.3 0.5 1.3 1.2-0.3 1.8z"/><path class="b" d="m194.5 751c-0.4-0.8-0.2-1.6 1-2.1 0.4 0.8 0.3 1.6-1 2.1z"/><path class="n" d="m372.2 508.1q0.4-0.2 0.8 0.6-0.4 0.3-0.8-0.6z"/><path class="n" d="m373.2 509.2q0.4-0.3 0.8 0.4-0.3 0.1-0.8-0.4z"/><path class="k" d="m345.4 621.7c-3.4 0-4.9 2.7-7 4.3-1.1 0.9-2.5 1.6-3.6 0.5-1.3-1.2 0.1-2.5 0.8-3.4 0.8-1 2-1.7 3-2.5 0.9-0.7 2-1.3 2.1-2.6 0.1-1.9-2.9-3.7-0.5-5.4 5.7-4.1 8.4-11.6 15.6-14 2.4-0.9 4.8-1.2 6.3 1.2 1.5 2.5 2.9 5.3 1.1 8.4-3.3 5.7-9.1 9-13.4 13.8-1.2 1.3-2.7 0.7-4.4-0.3z"/><path class="j" d="m302.7 621.7c-6 4.6-12.7 3.5-19 3.1-4.8-0.3-7.9-3.9-10.2-8-0.6-1.1-0.8-2.3 0.1-3.2 0.9-0.9 1.9-0.4 2.7 0.3 1.9 1.5 2.8 1.1 4.1-1.1 1.5-2.5 4.1-4.2 6-6.5 2.7-3 8.2-1.2 10.2 3.1 1.5 3.3 2.3 6.7 7.3 4 2-1.1 2.3 1.4 1.8 2.8-0.7 1.8-1.8 3.5-3 5.5z"/><path class="s" d="m627 506c0.7-13-1.1-25.4-1.1-37.9 0-11.1 4.7-20.9 17.6-23.4 14.2-2.7 28.4-3.2 42.2 1.5 5.9 2 10.3 6.5 11.6 13.2 0.9 4.6 1.7 9.1 1.7 13.8-0.1 13.3-0.1 26.6 0 39.9 0.2 19.2-1.5 38.2-1.1 57.4 0.2 9.3-6.8 16.6-15.8 18.8-11.8 2.9-24 2.3-36.1 0.8-4.7-0.5-8.7-3.1-12.6-5.6-2.8-1.8-4.8-4.3-5.5-7.9-1.3-6.9-1.2-13.7-1-20.6 0.4-16.5 0.1-33 0.1-50z"/><path class="s" d="m692.8 599.5c0.2 6.4-0.1 12.3 0.3 18.3 0.4 6.3-4.6 3.9-7.2 4.6-3.5 0.9-2.8-2.4-2.9-4.3-0.3-5.8 1.3-11.4 1.1-17.3-0.1-3.2 3.1-3.8 8.7-1.3z"/><path class="w" d="m455 627c-1.5 1-2.6 1.9-3.9 2.9-1.5-1.7-0.4-3.4 0.3-4.2 7-8.5 11.6-18.8 20.3-26 2.5-2 4.8-2.6 7-0.3 2.3 2.4 1.5 4.7-0.6 7-6.8 7.7-14.4 14.4-23.1 20.6z"/><path class="k" d="m809.3 712.8c0.3-2.3 0.8-4.2 2.1-5.8 2.9-3.9 6.2-4.6 10.2-2.2 3.5 2.2 4.4 6.5 2.2 10.5-2 3.7-5.7 4.9-9.7 3.2-2.4-1.1-4.1-2.8-4.8-5.7z"/><path class="k" d="m137.8 704.8c4.9-2.3 8.8-1.3 11.3 2.8 1.8 2.8 0.6 8.2-2.1 10.4-2.7 2.1-7.8 1.4-10.5-1.4-2.6-2.7-2.2-7.9 1.3-11.8z"/><path class="x" d="m687.1 545.1c0 8.2 0 15.8-0.1 23.5 0 6.9-4.3 11.3-11 11.5-9 0.3-9 0.3-9-9q0-55.8 0-111.5c0-6.9 0.1-6.7 7.2-5.9 9.6 1.1 13.2 5.6 13 15.1-0.4 19.8 1.3 39.6 0.7 59.4-0.2 5.5-0.5 10.9-0.8 16.9z"/><path class="x" d="m636.1 483c0.1-6.6-0.4-12.8 0.9-18.9 1.3-6.6 10.5-12.5 16.9-10.8 2.5 0.7 2 2.8 2 4.5 0 10.9 0 21.7 0 32.5 0 28-0.1 56 0.1 83.9 0 4.4-0.8 6.2-5.7 5.9-9.4-0.5-14.3-5.1-14.3-14.7 0-27.3 0.1-54.6 0.1-82.4z"/><path class="q" d="m144.3 710.3c-1 1.7-2.3 2.1-3.5 1.2-1.6-1.2 0-2.7 0.2-4 0.3-1.2 1.2-1.6 2.3-1.2 1.7 0.8 2 2.1 1 4z"/></svg>