<?xml version="1.0" standalone="no"?>
<svg xmlns:xlink="http://www.w3.org/1999/xlink" id="wave" style="transform:rotate(0deg); transition: 0.3s" viewBox="0 0 1440 180" version="1.1" xmlns="http://www.w3.org/2000/svg"><defs><linearGradient id="sw-gradient-0" x1="0" x2="0" y1="1" y2="0"><stop stop-color="rgba(255, 255, 255, 1)" offset="0%"/><stop stop-color="rgba(255, 255, 255, 1)" offset="100%"/></linearGradient></defs><path style="transform:translate(0, 0px); opacity:1" fill="url(#sw-gradient-0)" d="M0,162L30,150C60,138,120,114,180,114C240,114,300,138,360,135C420,132,480,102,540,87C600,72,660,72,720,87C780,102,840,132,900,147C960,162,1020,162,1080,144C1140,126,1200,90,1260,81C1320,72,1380,90,1440,81C1500,72,1560,36,1620,42C1680,48,1740,96,1800,108C1860,120,1920,96,1980,93C2040,90,2100,108,2160,123C2220,138,2280,150,2340,135C2400,120,2460,78,2520,78C2580,78,2640,120,2700,132C2760,144,2820,126,2880,126C2940,126,3000,144,3060,132C3120,120,3180,78,3240,57C3300,36,3360,36,3420,45C3480,54,3540,72,3600,78C3660,84,3720,78,3780,66C3840,54,3900,36,3960,24C4020,12,4080,6,4140,30C4200,54,4260,108,4290,135L4320,162L4320,180L4290,180C4260,180,4200,180,4140,180C4080,180,4020,180,3960,180C3900,180,3840,180,3780,180C3720,180,3660,180,3600,180C3540,180,3480,180,3420,180C3360,180,3300,180,3240,180C3180,180,3120,180,3060,180C3000,180,2940,180,2880,180C2820,180,2760,180,2700,180C2640,180,2580,180,2520,180C2460,180,2400,180,2340,180C2280,180,2220,180,2160,180C2100,180,2040,180,1980,180C1920,180,1860,180,1800,180C1740,180,1680,180,1620,180C1560,180,1500,180,1440,180C1380,180,1320,180,1260,180C1200,180,1140,180,1080,180C1020,180,960,180,900,180C840,180,780,180,720,180C660,180,600,180,540,180C480,180,420,180,360,180C300,180,240,180,180,180C120,180,60,180,30,180L0,180Z"/></svg>